<mxfile host="app.diagrams.net" modified="2020-11-25T22:30:06.101Z" agent="5.0 (Windows NT 10.0; WOW64) AppleWebKit/537.36 (KHTML, like Gecko) Chrome/89.0.4336.0 Safari/537.36" etag="o8YRnrIJ4zxVk2CM6TBP" version="13.10.2" type="github" pages="4">
  <diagram id="MCUedYCyf14W8jVJYuF2" name="Page-1">
    <mxGraphModel dx="1422" dy="793" grid="1" gridSize="10" guides="1" tooltips="1" connect="1" arrows="1" fold="1" page="1" pageScale="1" pageWidth="850" pageHeight="1100" math="0" shadow="0">
      <root>
        <mxCell id="0" />
        <mxCell id="1" parent="0" />
        <mxCell id="SL-674wUfNVV9EcTPCt0-19" value="&lt;font style=&quot;font-size: 17px&quot;&gt;&lt;b&gt;BlockBench&lt;/b&gt;&lt;/font&gt;" style="shape=umlFrame;whiteSpace=wrap;html=1;width=120;height=40;strokeWidth=2;fontFamily=Inter;fontSize=15;fontSource=https%3A%2F%2Ffonts.googleapis.com%2Fcss%3Ffamily%3DInter;" parent="1" vertex="1">
          <mxGeometry x="40" y="30" width="700" height="345" as="geometry" />
        </mxCell>
        <mxCell id="SL-674wUfNVV9EcTPCt0-37" value="&lt;b&gt;Web Services&lt;/b&gt;" style="shape=umlFrame;whiteSpace=wrap;html=1;width=130;height=40;strokeWidth=2;fontFamily=Inter;fontSize=15;strokeColor=#82b366;fillColor=#BAE8C0;fontSource=https%3A%2F%2Ffonts.googleapis.com%2Fcss%3Ffamily%3DInter;" parent="1" vertex="1">
          <mxGeometry x="390" y="60" width="330" height="300" as="geometry" />
        </mxCell>
        <mxCell id="SL-674wUfNVV9EcTPCt0-52" value="" style="html=1;strokeWidth=2;fontFamily=Inter;fontSize=18;rounded=0;fillColor=#BAE8C0;fontSource=https%3A%2F%2Ffonts.googleapis.com%2Fcss%3Ffamily%3DInter;" parent="1" vertex="1">
          <mxGeometry x="418.76" y="200" width="130" height="130" as="geometry" />
        </mxCell>
        <mxCell id="SL-674wUfNVV9EcTPCt0-21" value="&lt;div style=&quot;font-size: 22px&quot;&gt;&lt;font style=&quot;font-size: 22px&quot;&gt;Transaction&lt;/font&gt;&lt;/div&gt;&lt;div style=&quot;font-size: 22px&quot;&gt;&lt;font style=&quot;font-size: 22px&quot;&gt;Servers&lt;/font&gt;&lt;br style=&quot;font-size: 18px&quot;&gt;&lt;/div&gt;" style="html=1;strokeWidth=2;fontFamily=Inter;fontSize=18;rounded=0;fillColor=#BAE8C0;fontSource=https%3A%2F%2Ffonts.googleapis.com%2Fcss%3Ffamily%3DInter;" parent="1" vertex="1">
          <mxGeometry x="410" y="210" width="130" height="130" as="geometry" />
        </mxCell>
        <mxCell id="SL-674wUfNVV9EcTPCt0-18" value="&lt;font style=&quot;font-size: 17px&quot;&gt;&lt;b&gt;Docker Environment&lt;/b&gt;&lt;/font&gt;" style="shape=umlFrame;whiteSpace=wrap;html=1;width=190;height=50;strokeWidth=2;fontFamily=Inter;fontSize=15;fontSource=https%3A%2F%2Ffonts.googleapis.com%2Fcss%3Ffamily%3DInter;" parent="1" vertex="1">
          <mxGeometry x="40" y="500" width="700" height="240" as="geometry" />
        </mxCell>
        <mxCell id="SL-674wUfNVV9EcTPCt0-20" value="&lt;font style=&quot;font-size: 22px;&quot;&gt;Configuration&lt;/font&gt;" style="html=1;strokeWidth=2;fontFamily=Inter;fontSize=22;rounded=0;fillColor=#E0C2FF;fontSource=https%3A%2F%2Ffonts.googleapis.com%2Fcss%3Ffamily%3DInter;" parent="1" vertex="1">
          <mxGeometry x="59.150000000000006" y="270" width="218.91" height="90" as="geometry" />
        </mxCell>
        <mxCell id="SL-674wUfNVV9EcTPCt0-22" value="" style="group;fontFamily=Inter;fontSource=https%3A%2F%2Ffonts.googleapis.com%2Fcss%3Ffamily%3DInter;" parent="1" vertex="1" connectable="0">
          <mxGeometry x="180" y="530" width="510" height="190" as="geometry" />
        </mxCell>
        <mxCell id="SL-674wUfNVV9EcTPCt0-23" value="&lt;font style=&quot;font-size: 22px&quot;&gt;Hyperledger Fabric v2.2&lt;/font&gt;" style="rounded=0;whiteSpace=wrap;html=1;strokeWidth=2;fontFamily=Inter;fontSize=18;fillColor=#ADFFFC;fontSource=https%3A%2F%2Ffonts.googleapis.com%2Fcss%3Ffamily%3DInter;" parent="SL-674wUfNVV9EcTPCt0-22" vertex="1">
          <mxGeometry y="44.90909090909091" width="509.99999999999994" height="145.09090909090907" as="geometry" />
        </mxCell>
        <mxCell id="SL-674wUfNVV9EcTPCt0-24" value="&lt;font style=&quot;font-size: 22px&quot;&gt;Chaincode&lt;/font&gt;" style="rounded=0;whiteSpace=wrap;html=1;strokeWidth=2;fontFamily=Inter;fontSize=18;fillColor=#ADFFFC;fontSource=https%3A%2F%2Ffonts.googleapis.com%2Fcss%3Ffamily%3DInter;" parent="SL-674wUfNVV9EcTPCt0-22" vertex="1">
          <mxGeometry x="178.49999999999997" width="331.4999999999999" height="44.90909090909091" as="geometry" />
        </mxCell>
        <mxCell id="SL-674wUfNVV9EcTPCt0-29" value="" style="html=1;strokeWidth=1;fontFamily=Inter;fontSize=18;fontSource=https%3A%2F%2Ffonts.googleapis.com%2Fcss%3Ffamily%3DInter;" parent="1" vertex="1">
          <mxGeometry x="225.12" y="150" width="7.44" height="39.38" as="geometry" />
        </mxCell>
        <mxCell id="SL-674wUfNVV9EcTPCt0-35" value="" style="group;strokeWidth=2;fontFamily=Inter;fontSource=https%3A%2F%2Ffonts.googleapis.com%2Fcss%3Ffamily%3DInter;" parent="1" vertex="1" connectable="0">
          <mxGeometry x="410" y="309.59" width="155.61999999999998" height="195" as="geometry" />
        </mxCell>
        <mxCell id="SL-674wUfNVV9EcTPCt0-27" value="" style="shape=singleArrow;whiteSpace=wrap;html=1;arrowWidth=0.4380680537820205;arrowSize=0.3961969836165981;rotation=90;strokeWidth=2;fontFamily=Inter;fontSize=18;fillColor=#BAE8C0;fontSource=https%3A%2F%2Ffonts.googleapis.com%2Fcss%3Ffamily%3DInter;" parent="SL-674wUfNVV9EcTPCt0-35" vertex="1">
          <mxGeometry x="-27.3" y="41.57" width="182.92" height="133.13" as="geometry" />
        </mxCell>
        <mxCell id="SL-674wUfNVV9EcTPCt0-28" value="&lt;font style=&quot;font-size: 18px&quot;&gt;invokes transactions &lt;/font&gt;" style="rounded=0;whiteSpace=wrap;html=1;sketch=0;strokeWidth=2;gradientColor=none;fontFamily=Inter;fontSize=15;opacity=90;fontSource=https%3A%2F%2Ffonts.googleapis.com%2Fcss%3Ffamily%3DInter;" parent="SL-674wUfNVV9EcTPCt0-35" vertex="1">
          <mxGeometry x="7.72" y="70" width="112.89" height="50.97" as="geometry" />
        </mxCell>
        <mxCell id="SL-674wUfNVV9EcTPCt0-36" value="&lt;div style=&quot;font-size: 22px&quot;&gt;&lt;font style=&quot;font-size: 22px&quot;&gt;Block&lt;br&gt;&lt;/font&gt;&lt;/div&gt;&lt;div style=&quot;font-size: 22px&quot;&gt;&lt;font style=&quot;font-size: 22px&quot;&gt;Server&lt;/font&gt;&lt;br style=&quot;font-size: 18px&quot;&gt;&lt;/div&gt;" style="html=1;strokeWidth=2;fontFamily=Inter;fontSize=18;rounded=0;fillColor=#BAE8C0;fontSource=https%3A%2F%2Ffonts.googleapis.com%2Fcss%3Ffamily%3DInter;" parent="1" vertex="1">
          <mxGeometry x="570" y="120" width="130" height="220" as="geometry" />
        </mxCell>
        <mxCell id="SL-674wUfNVV9EcTPCt0-43" value="" style="group;rotation=-180;strokeWidth=2;fontFamily=Inter;fontSource=https%3A%2F%2Ffonts.googleapis.com%2Fcss%3Ffamily%3DInter;" parent="1" vertex="1" connectable="0">
          <mxGeometry x="548.76" y="326.05" width="151.24" height="195" as="geometry" />
        </mxCell>
        <mxCell id="SL-674wUfNVV9EcTPCt0-44" value="" style="shape=singleArrow;whiteSpace=wrap;html=1;arrowWidth=0.4380680537820205;arrowSize=0.3961969836165981;rotation=-90;strokeWidth=2;fontFamily=Inter;fontSize=18;fillColor=#BAE8C0;fontSource=https%3A%2F%2Ffonts.googleapis.com%2Fcss%3Ffamily%3DInter;" parent="SL-674wUfNVV9EcTPCt0-43" vertex="1">
          <mxGeometry y="25" width="174.16" height="133.13" as="geometry" />
        </mxCell>
        <mxCell id="SL-674wUfNVV9EcTPCt0-41" value="&lt;font style=&quot;font-size: 18px&quot;&gt;obtains Block Data&lt;/font&gt;" style="rounded=0;whiteSpace=wrap;html=1;sketch=0;strokeWidth=2;gradientColor=none;fontFamily=Inter;fontSize=15;opacity=90;fontSource=https%3A%2F%2Ffonts.googleapis.com%2Fcss%3Ffamily%3DInter;" parent="SL-674wUfNVV9EcTPCt0-43" vertex="1">
          <mxGeometry x="30.63" y="90" width="112.89" height="50" as="geometry" />
        </mxCell>
        <mxCell id="SL-674wUfNVV9EcTPCt0-49" value="" style="group;strokeWidth=2;fontFamily=Inter;fontSource=https%3A%2F%2Ffonts.googleapis.com%2Fcss%3Ffamily%3DInter;fontSize=16;" parent="1" vertex="1" connectable="0">
          <mxGeometry x="59.150000000000006" y="100" width="270" height="166.4" as="geometry" />
        </mxCell>
        <mxCell id="SL-674wUfNVV9EcTPCt0-31" value="&lt;font style=&quot;font-size: 22px&quot;&gt;Driver&lt;/font&gt;" style="html=1;strokeWidth=2;fontFamily=Inter;fontSize=24;fillColor=#B3C7F5;fontSource=https%3A%2F%2Ffonts.googleapis.com%2Fcss%3Ffamily%3DInter;" parent="SL-674wUfNVV9EcTPCt0-49" vertex="1">
          <mxGeometry y="30.476190476190474" width="218.91" height="129.52380952380952" as="geometry" />
        </mxCell>
        <mxCell id="SL-674wUfNVV9EcTPCt0-50" value="" style="group;strokeWidth=2;strokeColor=#000000;fontFamily=Inter;fontSource=https%3A%2F%2Ffonts.googleapis.com%2Fcss%3Ffamily%3DInter;" parent="SL-674wUfNVV9EcTPCt0-49" vertex="1" connectable="0">
          <mxGeometry x="72.67999999999999" y="-10" width="146.22999999999996" height="40.48428571428572" as="geometry" />
        </mxCell>
        <mxCell id="SL-674wUfNVV9EcTPCt0-38" value="" style="html=1;strokeWidth=2;fontFamily=Inter;fontSize=18;fontSource=https%3A%2F%2Ffonts.googleapis.com%2Fcss%3Ffamily%3DInter;" parent="SL-674wUfNVV9EcTPCt0-50" vertex="1">
          <mxGeometry x="7.43999999999998" width="7.439999999999999" height="40.48428571428572" as="geometry" />
        </mxCell>
        <mxCell id="SL-674wUfNVV9EcTPCt0-32" value="Workloads" style="html=1;strokeWidth=2;fontFamily=Inter;fontSize=18;fontSource=https%3A%2F%2Ffonts.googleapis.com%2Fcss%3Ffamily%3DInter;" parent="SL-674wUfNVV9EcTPCt0-50" vertex="1">
          <mxGeometry x="14.883999999999979" width="131.34599999999995" height="40.47914550533266" as="geometry" />
        </mxCell>
        <mxCell id="SL-674wUfNVV9EcTPCt0-33" value="" style="html=1;strokeWidth=2;fontFamily=Inter;fontSize=18;fontSource=https%3A%2F%2Ffonts.googleapis.com%2Fcss%3Ffamily%3DInter;" parent="SL-674wUfNVV9EcTPCt0-50" vertex="1">
          <mxGeometry width="7.439999999999999" height="40.48428571428572" as="geometry" />
        </mxCell>
        <mxCell id="SL-674wUfNVV9EcTPCt0-48" value="&lt;font style=&quot;font-size: 18px&quot;&gt;&amp;nbsp; &amp;nbsp; receives Benchmark Information&lt;/font&gt;" style="shape=singleArrow;whiteSpace=wrap;html=1;arrowWidth=0.5788936170212764;arrowSize=0.11935483870967742;strokeWidth=2;fontFamily=Inter;fontSize=14;align=center;fillColor=#B3C7F5;flipH=1;fontSource=https%3A%2F%2Ffonts.googleapis.com%2Fcss%3Ffamily%3DInter;spacingBottom=2;" parent="1" vertex="1">
          <mxGeometry x="252.25" y="130.63" width="330" height="58.75" as="geometry" />
        </mxCell>
        <mxCell id="SL-674wUfNVV9EcTPCt0-54" value="" style="group;strokeWidth=2;fontFamily=Inter;fontSource=https%3A%2F%2Ffonts.googleapis.com%2Fcss%3Ffamily%3DInter;" parent="1" vertex="1" connectable="0">
          <mxGeometry x="110.01" y="353.23" width="120" height="154.77" as="geometry" />
        </mxCell>
        <mxCell id="SL-674wUfNVV9EcTPCt0-25" value="" style="shape=singleArrow;whiteSpace=wrap;html=1;arrowWidth=0.47558333333333375;arrowSize=0.459228760795341;rotation=90;strokeWidth=2;fontFamily=Inter;fontSize=18;fillColor=#E0C2FF;fontSource=https%3A%2F%2Ffonts.googleapis.com%2Fcss%3Ffamily%3DInter;" parent="SL-674wUfNVV9EcTPCt0-54" vertex="1">
          <mxGeometry x="-14.684999999999999" y="15.215889736894962" width="149.36999999999998" height="124.33822052621008" as="geometry" />
        </mxCell>
        <mxCell id="SL-674wUfNVV9EcTPCt0-26" value="&lt;font style=&quot;font-size: 18px&quot;&gt;initializes&lt;/font&gt;" style="rounded=0;whiteSpace=wrap;html=1;sketch=0;strokeWidth=2;gradientColor=none;fontFamily=Inter;fontSize=15;opacity=90;fontSource=https%3A%2F%2Ffonts.googleapis.com%2Fcss%3Ffamily%3DInter;" parent="SL-674wUfNVV9EcTPCt0-54" vertex="1">
          <mxGeometry x="6.2349999999999834" y="42.67391343643296" width="107.49999999999997" height="25.903795942960432" as="geometry" />
        </mxCell>
        <mxCell id="SL-674wUfNVV9EcTPCt0-55" value="&lt;div&gt;&lt;font style=&quot;font-size: 18px&quot;&gt;&amp;nbsp;initializes&amp;nbsp; &amp;nbsp;&lt;/font&gt;&lt;br&gt;&lt;/div&gt;" style="shape=singleArrow;whiteSpace=wrap;html=1;arrowWidth=0.6384234881123361;arrowSize=0.25906735751295334;strokeWidth=2;fontFamily=Inter;fontSize=14;align=center;fillColor=#E0C2FF;fontSource=https%3A%2F%2Ffonts.googleapis.com%2Fcss%3Ffamily%3DInter;" parent="1" vertex="1">
          <mxGeometry x="260" y="283.67" width="140" height="62.67" as="geometry" />
        </mxCell>
        <mxCell id="SL-674wUfNVV9EcTPCt0-34" value="&lt;div style=&quot;line-height: 90%&quot;&gt;&lt;font style=&quot;font-size: 18px&quot;&gt;sends transactions&amp;nbsp;&lt;/font&gt;&lt;br style=&quot;font-size: 14px&quot;&gt;&lt;/div&gt;" style="shape=singleArrow;whiteSpace=wrap;html=1;arrowWidth=0.5956598053295052;arrowSize=0.2411764705882353;strokeWidth=2;fontFamily=Inter;fontSize=14;align=center;fillColor=#B3C7F5;spacingLeft=-8;fontSource=https%3A%2F%2Ffonts.googleapis.com%2Fcss%3Ffamily%3DInter;spacingBottom=2;" parent="1" vertex="1">
          <mxGeometry x="250" y="198.67" width="190" height="62.67" as="geometry" />
        </mxCell>
        <mxCell id="Ep-9P9s-HMr_xIuFuwrF-3" value="C++" style="html=1;strokeWidth=2;fontFamily=Inter;fontSize=18;rounded=0;fillColor=#B3C7F5;fontSource=https%3A%2F%2Ffonts.googleapis.com%2Fcss%3Ffamily%3DInter;fontStyle=0" parent="1" vertex="1">
          <mxGeometry x="40" y="770" width="157.74647887323943" height="40" as="geometry" />
        </mxCell>
        <mxCell id="Ep-9P9s-HMr_xIuFuwrF-4" value="YAML, Bash" style="html=1;strokeWidth=2;fontFamily=Inter;fontSize=18;rounded=0;fillColor=#E0C2FF;fontSource=https%3A%2F%2Ffonts.googleapis.com%2Fcss%3Ffamily%3DInter;fontStyle=0" parent="1" vertex="1">
          <mxGeometry x="222.51267605633802" y="770" width="157.74647887323943" height="40" as="geometry" />
        </mxCell>
        <mxCell id="Ep-9P9s-HMr_xIuFuwrF-5" value="Node.js" style="html=1;strokeWidth=2;fontFamily=Inter;fontSize=18;rounded=0;fillColor=#BAE8C0;fontSource=https%3A%2F%2Ffonts.googleapis.com%2Fcss%3Ffamily%3DInter;fontStyle=0" parent="1" vertex="1">
          <mxGeometry x="402.6295774647887" y="770" width="157.74647887323943" height="40" as="geometry" />
        </mxCell>
        <mxCell id="Ep-9P9s-HMr_xIuFuwrF-6" value="Go" style="html=1;strokeWidth=2;fontFamily=Inter;fontSize=18;rounded=0;fillColor=#ADFFFC;fontSource=https%3A%2F%2Ffonts.googleapis.com%2Fcss%3Ffamily%3DInter;fontStyle=0" parent="1" vertex="1">
          <mxGeometry x="582.2535211267606" y="770" width="157.74647887323943" height="40" as="geometry" />
        </mxCell>
      </root>
    </mxGraphModel>
  </diagram>
  <diagram id="qN17Iz-Tcx5NyKunv01a" name="Page-2">
    <mxGraphModel dx="1422" dy="793" grid="1" gridSize="10" guides="1" tooltips="1" connect="1" arrows="1" fold="1" page="1" pageScale="1" pageWidth="850" pageHeight="1100" math="0" shadow="0">
      <root>
        <mxCell id="7yJFiCIgCRq3t-gZ6g2N-0" />
        <mxCell id="7yJFiCIgCRq3t-gZ6g2N-1" parent="7yJFiCIgCRq3t-gZ6g2N-0" />
        <mxCell id="7yJFiCIgCRq3t-gZ6g2N-2" value="&lt;font style=&quot;font-size: 17px&quot;&gt;&lt;b&gt;BlockBench&lt;/b&gt;&lt;/font&gt;" style="shape=umlFrame;whiteSpace=wrap;html=1;width=120;height=40;strokeWidth=2;fontFamily=Inter;fontSize=15;fontSource=https%3A%2F%2Ffonts.googleapis.com%2Fcss%3Ffamily%3DInter;" parent="7yJFiCIgCRq3t-gZ6g2N-1" vertex="1">
          <mxGeometry x="40" y="30" width="700" height="345" as="geometry" />
        </mxCell>
        <mxCell id="7yJFiCIgCRq3t-gZ6g2N-3" value="&lt;b&gt;Web Services&lt;/b&gt;" style="shape=umlFrame;whiteSpace=wrap;html=1;width=130;height=40;strokeWidth=2;fontFamily=Inter;fontSize=15;strokeColor=#82b366;fillColor=#BAE8C0;fontSource=https%3A%2F%2Ffonts.googleapis.com%2Fcss%3Ffamily%3DInter;" parent="7yJFiCIgCRq3t-gZ6g2N-1" vertex="1">
          <mxGeometry x="390" y="60" width="330" height="300" as="geometry" />
        </mxCell>
        <mxCell id="7yJFiCIgCRq3t-gZ6g2N-4" value="" style="html=1;strokeWidth=2;fontFamily=Inter;fontSize=18;rounded=0;fillColor=#BAE8C0;fontSource=https%3A%2F%2Ffonts.googleapis.com%2Fcss%3Ffamily%3DInter;" parent="7yJFiCIgCRq3t-gZ6g2N-1" vertex="1">
          <mxGeometry x="418.76" y="200" width="130" height="130" as="geometry" />
        </mxCell>
        <mxCell id="7yJFiCIgCRq3t-gZ6g2N-5" value="&lt;div style=&quot;font-size: 22px&quot;&gt;&lt;font style=&quot;font-size: 22px&quot;&gt;Transaction&lt;/font&gt;&lt;/div&gt;&lt;div style=&quot;font-size: 22px&quot;&gt;&lt;font style=&quot;font-size: 22px&quot;&gt;Servers&lt;/font&gt;&lt;br style=&quot;font-size: 18px&quot;&gt;&lt;/div&gt;" style="html=1;strokeWidth=2;fontFamily=Inter;fontSize=18;rounded=0;fillColor=#BAE8C0;fontSource=https%3A%2F%2Ffonts.googleapis.com%2Fcss%3Ffamily%3DInter;" parent="7yJFiCIgCRq3t-gZ6g2N-1" vertex="1">
          <mxGeometry x="410" y="210" width="130" height="130" as="geometry" />
        </mxCell>
        <mxCell id="7yJFiCIgCRq3t-gZ6g2N-6" value="&lt;font style=&quot;font-size: 17px&quot;&gt;&lt;b&gt;Docker Environment&lt;/b&gt;&lt;/font&gt;" style="shape=umlFrame;whiteSpace=wrap;html=1;width=190;height=50;strokeWidth=2;fontFamily=Inter;fontSize=15;fontSource=https%3A%2F%2Ffonts.googleapis.com%2Fcss%3Ffamily%3DInter;" parent="7yJFiCIgCRq3t-gZ6g2N-1" vertex="1">
          <mxGeometry x="40" y="500" width="700" height="240" as="geometry" />
        </mxCell>
        <mxCell id="7yJFiCIgCRq3t-gZ6g2N-7" value="&lt;font style=&quot;font-size: 22px;&quot;&gt;Configuration&lt;/font&gt;" style="html=1;strokeWidth=2;fontFamily=Inter;fontSize=22;rounded=0;fillColor=#E0C2FF;fontSource=https%3A%2F%2Ffonts.googleapis.com%2Fcss%3Ffamily%3DInter;" parent="7yJFiCIgCRq3t-gZ6g2N-1" vertex="1">
          <mxGeometry x="59.150000000000006" y="270" width="218.91" height="90" as="geometry" />
        </mxCell>
        <mxCell id="7yJFiCIgCRq3t-gZ6g2N-8" value="" style="group;fontFamily=Inter;fontSource=https%3A%2F%2Ffonts.googleapis.com%2Fcss%3Ffamily%3DInter;" parent="7yJFiCIgCRq3t-gZ6g2N-1" vertex="1" connectable="0">
          <mxGeometry x="180" y="530" width="510" height="190" as="geometry" />
        </mxCell>
        <mxCell id="7yJFiCIgCRq3t-gZ6g2N-9" value="&lt;font style=&quot;font-size: 22px&quot;&gt;Hyperledger Fabric v2.2&lt;/font&gt;" style="rounded=0;whiteSpace=wrap;html=1;strokeWidth=2;fontFamily=Inter;fontSize=18;fillColor=#ADFFFC;fontSource=https%3A%2F%2Ffonts.googleapis.com%2Fcss%3Ffamily%3DInter;" parent="7yJFiCIgCRq3t-gZ6g2N-8" vertex="1">
          <mxGeometry y="44.90909090909091" width="509.99999999999994" height="145.09090909090907" as="geometry" />
        </mxCell>
        <mxCell id="7yJFiCIgCRq3t-gZ6g2N-10" value="&lt;font style=&quot;font-size: 22px&quot;&gt;Chaincode&lt;/font&gt;" style="rounded=0;whiteSpace=wrap;html=1;strokeWidth=2;fontFamily=Inter;fontSize=18;fillColor=#ADFFFC;fontSource=https%3A%2F%2Ffonts.googleapis.com%2Fcss%3Ffamily%3DInter;" parent="7yJFiCIgCRq3t-gZ6g2N-8" vertex="1">
          <mxGeometry x="178.49999999999997" width="331.4999999999999" height="44.90909090909091" as="geometry" />
        </mxCell>
        <mxCell id="7yJFiCIgCRq3t-gZ6g2N-11" value="" style="html=1;strokeWidth=1;fontFamily=Inter;fontSize=18;fontSource=https%3A%2F%2Ffonts.googleapis.com%2Fcss%3Ffamily%3DInter;" parent="7yJFiCIgCRq3t-gZ6g2N-1" vertex="1">
          <mxGeometry x="225.12" y="150" width="7.44" height="39.38" as="geometry" />
        </mxCell>
        <mxCell id="7yJFiCIgCRq3t-gZ6g2N-15" value="&lt;div style=&quot;font-size: 22px&quot;&gt;&lt;font style=&quot;font-size: 22px&quot;&gt;Block&lt;br&gt;&lt;/font&gt;&lt;/div&gt;&lt;div style=&quot;font-size: 22px&quot;&gt;&lt;font style=&quot;font-size: 22px&quot;&gt;Server&lt;/font&gt;&lt;br style=&quot;font-size: 18px&quot;&gt;&lt;/div&gt;" style="html=1;strokeWidth=2;fontFamily=Inter;fontSize=18;rounded=0;fillColor=#BAE8C0;fontSource=https%3A%2F%2Ffonts.googleapis.com%2Fcss%3Ffamily%3DInter;" parent="7yJFiCIgCRq3t-gZ6g2N-1" vertex="1">
          <mxGeometry x="570" y="120" width="130" height="220" as="geometry" />
        </mxCell>
        <mxCell id="7yJFiCIgCRq3t-gZ6g2N-19" value="" style="group;strokeWidth=2;fontFamily=Inter;fontSource=https%3A%2F%2Ffonts.googleapis.com%2Fcss%3Ffamily%3DInter;fontSize=16;" parent="7yJFiCIgCRq3t-gZ6g2N-1" vertex="1" connectable="0">
          <mxGeometry x="59.150000000000006" y="100" width="270" height="166.4" as="geometry" />
        </mxCell>
        <mxCell id="7yJFiCIgCRq3t-gZ6g2N-20" value="&lt;font style=&quot;font-size: 22px&quot;&gt;Driver&lt;/font&gt;" style="html=1;strokeWidth=2;fontFamily=Inter;fontSize=24;fillColor=#B3C7F5;fontSource=https%3A%2F%2Ffonts.googleapis.com%2Fcss%3Ffamily%3DInter;" parent="7yJFiCIgCRq3t-gZ6g2N-19" vertex="1">
          <mxGeometry y="30.476190476190474" width="218.91" height="129.52380952380952" as="geometry" />
        </mxCell>
        <mxCell id="7yJFiCIgCRq3t-gZ6g2N-21" value="" style="group;strokeWidth=2;strokeColor=#000000;fontFamily=Inter;fontSource=https%3A%2F%2Ffonts.googleapis.com%2Fcss%3Ffamily%3DInter;" parent="7yJFiCIgCRq3t-gZ6g2N-19" vertex="1" connectable="0">
          <mxGeometry x="72.67999999999999" y="-10" width="146.22999999999996" height="40.48428571428572" as="geometry" />
        </mxCell>
        <mxCell id="7yJFiCIgCRq3t-gZ6g2N-22" value="" style="html=1;strokeWidth=2;fontFamily=Inter;fontSize=18;fontSource=https%3A%2F%2Ffonts.googleapis.com%2Fcss%3Ffamily%3DInter;" parent="7yJFiCIgCRq3t-gZ6g2N-21" vertex="1">
          <mxGeometry x="7.43999999999998" width="7.439999999999999" height="40.48428571428572" as="geometry" />
        </mxCell>
        <mxCell id="7yJFiCIgCRq3t-gZ6g2N-23" value="Workloads" style="html=1;strokeWidth=2;fontFamily=Inter;fontSize=18;fontSource=https%3A%2F%2Ffonts.googleapis.com%2Fcss%3Ffamily%3DInter;" parent="7yJFiCIgCRq3t-gZ6g2N-21" vertex="1">
          <mxGeometry x="14.883999999999979" width="131.34599999999995" height="40.47914550533266" as="geometry" />
        </mxCell>
        <mxCell id="7yJFiCIgCRq3t-gZ6g2N-24" value="" style="html=1;strokeWidth=2;fontFamily=Inter;fontSize=18;fontSource=https%3A%2F%2Ffonts.googleapis.com%2Fcss%3Ffamily%3DInter;" parent="7yJFiCIgCRq3t-gZ6g2N-21" vertex="1">
          <mxGeometry width="7.439999999999999" height="40.48428571428572" as="geometry" />
        </mxCell>
        <mxCell id="7yJFiCIgCRq3t-gZ6g2N-31" value="C++" style="html=1;strokeWidth=2;fontFamily=Inter;fontSize=18;rounded=0;fillColor=#B3C7F5;fontSource=https%3A%2F%2Ffonts.googleapis.com%2Fcss%3Ffamily%3DInter;fontStyle=0" parent="7yJFiCIgCRq3t-gZ6g2N-1" vertex="1">
          <mxGeometry x="40" y="770" width="157.74647887323943" height="40" as="geometry" />
        </mxCell>
        <mxCell id="7yJFiCIgCRq3t-gZ6g2N-32" value="YAML, Bash" style="html=1;strokeWidth=2;fontFamily=Inter;fontSize=18;rounded=0;fillColor=#E0C2FF;fontSource=https%3A%2F%2Ffonts.googleapis.com%2Fcss%3Ffamily%3DInter;fontStyle=0" parent="7yJFiCIgCRq3t-gZ6g2N-1" vertex="1">
          <mxGeometry x="222.51267605633802" y="770" width="157.74647887323943" height="40" as="geometry" />
        </mxCell>
        <mxCell id="7yJFiCIgCRq3t-gZ6g2N-33" value="Node.js" style="html=1;strokeWidth=2;fontFamily=Inter;fontSize=18;rounded=0;fillColor=#BAE8C0;fontSource=https%3A%2F%2Ffonts.googleapis.com%2Fcss%3Ffamily%3DInter;fontStyle=0" parent="7yJFiCIgCRq3t-gZ6g2N-1" vertex="1">
          <mxGeometry x="402.6295774647887" y="770" width="157.74647887323943" height="40" as="geometry" />
        </mxCell>
        <mxCell id="7yJFiCIgCRq3t-gZ6g2N-34" value="Go" style="html=1;strokeWidth=2;fontFamily=Inter;fontSize=18;rounded=0;fillColor=#ADFFFC;fontSource=https%3A%2F%2Ffonts.googleapis.com%2Fcss%3Ffamily%3DInter;fontStyle=0" parent="7yJFiCIgCRq3t-gZ6g2N-1" vertex="1">
          <mxGeometry x="582.2535211267606" y="770" width="157.74647887323943" height="40" as="geometry" />
        </mxCell>
      </root>
    </mxGraphModel>
  </diagram>
  <diagram id="zwifFaHaipSmx1gL31-y" name="Page-3">
    <mxGraphModel dx="981" dy="547" grid="1" gridSize="10" guides="1" tooltips="1" connect="1" arrows="1" fold="1" page="1" pageScale="1" pageWidth="850" pageHeight="1100" math="0" shadow="0">
      <root>
        <mxCell id="082UMFXGraRLCLUTV1O--0" />
        <mxCell id="082UMFXGraRLCLUTV1O--1" parent="082UMFXGraRLCLUTV1O--0" />
        <mxCell id="ALahCP11P62aG3O1CHly-12" value="" style="rounded=1;whiteSpace=wrap;html=1;fontColor=#990000;strokeWidth=2;" vertex="1" parent="082UMFXGraRLCLUTV1O--1">
          <mxGeometry x="120" y="142.5" width="340" height="235" as="geometry" />
        </mxCell>
        <mxCell id="082UMFXGraRLCLUTV1O--2" value="a" style="rounded=0;whiteSpace=wrap;html=1;strokeWidth=2;fontFamily=Inter;fontSource=https%3A%2F%2Ffonts.googleapis.com%2Fcss%3Ffamily%3DInter;fontSize=22;" parent="082UMFXGraRLCLUTV1O--1" vertex="1">
          <mxGeometry x="360" y="160" width="40" height="40" as="geometry" />
        </mxCell>
        <mxCell id="CqMwpjRMphUCkKpvhQL3-0" value="b" style="rounded=0;whiteSpace=wrap;html=1;strokeWidth=2;fontFamily=Inter;fontSource=https%3A%2F%2Ffonts.googleapis.com%2Fcss%3Ffamily%3DInter;fontSize=22;" parent="082UMFXGraRLCLUTV1O--1" vertex="1">
          <mxGeometry x="360" y="200" width="40" height="40" as="geometry" />
        </mxCell>
        <mxCell id="CqMwpjRMphUCkKpvhQL3-1" value="c&lt;span style=&quot;color: rgba(0 , 0 , 0 , 0) ; font-family: monospace ; font-size: 0px&quot;&gt;%3CmxGraphModel%3E%3Croot%3E%3CmxCell%20id%3D%220%22%2F%3E%3CmxCell%20id%3D%221%22%20parent%3D%220%22%2F%3E%3CmxCell%20id%3D%222%22%20value%3D%22a%22%20style%3D%22rounded%3D0%3BwhiteSpace%3Dwrap%3Bhtml%3D1%3BstrokeWidth%3D2%3BfontFamily%3DInter%3BfontSource%3Dhttps%253A%252F%252Ffonts.googleapis.com%252Fcss%253Ffamily%253DInter%3BfontSize%3D22%3B%22%20vertex%3D%221%22%20parent%3D%221%22%3E%3CmxGeometry%20x%3D%22360%22%20y%3D%22160%22%20width%3D%2240%22%20height%3D%2240%22%20as%3D%22geometry%22%2F%3E%3C%2FmxCell%3E%3C%2Froot%3E%3C%2FmxGraphModel%3E&lt;/span&gt;&lt;span style=&quot;color: rgba(0 , 0 , 0 , 0) ; font-family: monospace ; font-size: 0px&quot;&gt;%3CmxGraphModel%3E%3Croot%3E%3CmxCell%20id%3D%220%22%2F%3E%3CmxCell%20id%3D%221%22%20parent%3D%220%22%2F%3E%3CmxCell%20id%3D%222%22%20value%3D%22a%22%20style%3D%22rounded%3D0%3BwhiteSpace%3Dwrap%3Bhtml%3D1%3BstrokeWidth%3D2%3BfontFamily%3DInter%3BfontSource%3Dhttps%253A%252F%252Ffonts.googleapis.com%252Fcss%253Ffamily%253DInter%3BfontSize%3D22%3B%22%20vertex%3D%221%22%20parent%3D%221%22%3E%3CmxGeometry%20x%3D%22360%22%20y%3D%22160%22%20width%3D%2240%22%20height%3D%2240%22%20as%3D%22geometry%22%2F%3E%3C%2FmxCell%3E%3C%2Froot%3E%3C%2FmxGraphModel%3E&lt;/span&gt;&lt;span style=&quot;color: rgba(0 , 0 , 0 , 0) ; font-family: monospace ; font-size: 0px&quot;&gt;%3CmxGraphModel%3E%3Croot%3E%3CmxCell%20id%3D%220%22%2F%3E%3CmxCell%20id%3D%221%22%20parent%3D%220%22%2F%3E%3CmxCell%20id%3D%222%22%20value%3D%22a%22%20style%3D%22rounded%3D0%3BwhiteSpace%3Dwrap%3Bhtml%3D1%3BstrokeWidth%3D2%3BfontFamily%3DInter%3BfontSource%3Dhttps%253A%252F%252Ffonts.googleapis.com%252Fcss%253Ffamily%253DInter%3BfontSize%3D22%3B%22%20vertex%3D%221%22%20parent%3D%221%22%3E%3CmxGeometry%20x%3D%22360%22%20y%3D%22160%22%20width%3D%2240%22%20height%3D%2240%22%20as%3D%22geometry%22%2F%3E%3C%2FmxCell%3E%3C%2Froot%3E%3C%2FmxGraphModel%3E&lt;/span&gt;" style="rounded=0;whiteSpace=wrap;html=1;strokeWidth=2;fontFamily=Inter;fontSource=https%3A%2F%2Ffonts.googleapis.com%2Fcss%3Ffamily%3DInter;fontSize=22;" parent="082UMFXGraRLCLUTV1O--1" vertex="1">
          <mxGeometry x="360" y="240" width="40" height="40" as="geometry" />
        </mxCell>
        <mxCell id="CqMwpjRMphUCkKpvhQL3-2" value="d" style="rounded=0;whiteSpace=wrap;html=1;strokeWidth=2;fontFamily=Inter;fontSource=https%3A%2F%2Ffonts.googleapis.com%2Fcss%3Ffamily%3DInter;fontSize=22;" parent="082UMFXGraRLCLUTV1O--1" vertex="1">
          <mxGeometry x="360" y="280" width="40" height="40" as="geometry" />
        </mxCell>
        <mxCell id="CqMwpjRMphUCkKpvhQL3-3" value="e" style="rounded=0;whiteSpace=wrap;html=1;strokeWidth=2;fontFamily=Inter;fontSource=https%3A%2F%2Ffonts.googleapis.com%2Fcss%3Ffamily%3DInter;fontSize=22;" parent="082UMFXGraRLCLUTV1O--1" vertex="1">
          <mxGeometry x="360" y="320" width="40" height="40" as="geometry" />
        </mxCell>
        <mxCell id="CqMwpjRMphUCkKpvhQL3-4" value="5" style="rounded=0;whiteSpace=wrap;html=1;strokeWidth=2;fontFamily=Inter;fontSource=https%3A%2F%2Ffonts.googleapis.com%2Fcss%3Ffamily%3DInter;fontSize=22;" parent="082UMFXGraRLCLUTV1O--1" vertex="1">
          <mxGeometry x="400" y="160" width="40" height="40" as="geometry" />
        </mxCell>
        <mxCell id="CqMwpjRMphUCkKpvhQL3-5" value="5" style="rounded=0;whiteSpace=wrap;html=1;strokeWidth=2;fontFamily=Inter;fontSource=https%3A%2F%2Ffonts.googleapis.com%2Fcss%3Ffamily%3DInter;fontSize=22;" parent="082UMFXGraRLCLUTV1O--1" vertex="1">
          <mxGeometry x="400" y="200" width="40" height="40" as="geometry" />
        </mxCell>
        <mxCell id="CqMwpjRMphUCkKpvhQL3-6" value="5" style="rounded=0;whiteSpace=wrap;html=1;strokeWidth=2;fontFamily=Inter;fontSource=https%3A%2F%2Ffonts.googleapis.com%2Fcss%3Ffamily%3DInter;fontSize=22;" parent="082UMFXGraRLCLUTV1O--1" vertex="1">
          <mxGeometry x="400" y="240" width="40" height="40" as="geometry" />
        </mxCell>
        <mxCell id="CqMwpjRMphUCkKpvhQL3-7" value="5" style="rounded=0;whiteSpace=wrap;html=1;strokeWidth=2;fontFamily=Inter;fontSource=https%3A%2F%2Ffonts.googleapis.com%2Fcss%3Ffamily%3DInter;fontSize=22;" parent="082UMFXGraRLCLUTV1O--1" vertex="1">
          <mxGeometry x="400" y="280" width="40" height="40" as="geometry" />
        </mxCell>
        <mxCell id="CqMwpjRMphUCkKpvhQL3-8" value="5" style="rounded=0;whiteSpace=wrap;html=1;strokeWidth=2;fontFamily=Inter;fontSource=https%3A%2F%2Ffonts.googleapis.com%2Fcss%3Ffamily%3DInter;fontSize=22;" parent="082UMFXGraRLCLUTV1O--1" vertex="1">
          <mxGeometry x="400" y="320" width="40" height="40" as="geometry" />
        </mxCell>
        <mxCell id="CqMwpjRMphUCkKpvhQL3-9" value="" style="labelPosition=right;align=left;strokeWidth=2;shape=mxgraph.mockup.markup.curlyBrace;html=1;shadow=0;dashed=0;direction=north;fontFamily=Inter;fontSource=https%3A%2F%2Ffonts.googleapis.com%2Fcss%3Ffamily%3DInter;fontSize=22;noLabel=1;fontColor=none;" parent="082UMFXGraRLCLUTV1O--1" vertex="1">
          <mxGeometry x="330" y="160" width="20" height="200" as="geometry" />
        </mxCell>
        <mxCell id="CqMwpjRMphUCkKpvhQL3-11" value="Range Read Query" style="text;html=1;align=center;verticalAlign=middle;resizable=0;points=[];autosize=1;fontSize=22;fontFamily=Inter;fontColor=none;" parent="082UMFXGraRLCLUTV1O--1" vertex="1">
          <mxGeometry x="120" y="245" width="210" height="30" as="geometry" />
        </mxCell>
        <mxCell id="ALahCP11P62aG3O1CHly-13" value="&lt;font color=&quot;#000000&quot; face=&quot;Inter&quot;&gt;&lt;span style=&quot;font-size: 22px&quot;&gt;Endorsement Phase&lt;/span&gt;&lt;/font&gt;" style="text;html=1;align=center;verticalAlign=middle;resizable=0;points=[];autosize=1;fontColor=#990000;" vertex="1" parent="082UMFXGraRLCLUTV1O--1">
          <mxGeometry x="180" y="110" width="220" height="20" as="geometry" />
        </mxCell>
        <mxCell id="ALahCP11P62aG3O1CHly-14" value="" style="rounded=1;whiteSpace=wrap;html=1;fontColor=#990000;strokeWidth=2;strokeColor=#990000;" vertex="1" parent="082UMFXGraRLCLUTV1O--1">
          <mxGeometry x="120" y="442.5" width="340" height="235" as="geometry" />
        </mxCell>
        <mxCell id="ALahCP11P62aG3O1CHly-15" value="a" style="rounded=0;whiteSpace=wrap;html=1;strokeWidth=2;fontFamily=Inter;fontSource=https%3A%2F%2Ffonts.googleapis.com%2Fcss%3Ffamily%3DInter;fontSize=22;" vertex="1" parent="082UMFXGraRLCLUTV1O--1">
          <mxGeometry x="360" y="460" width="40" height="40" as="geometry" />
        </mxCell>
        <mxCell id="ALahCP11P62aG3O1CHly-16" value="b" style="rounded=0;whiteSpace=wrap;html=1;strokeWidth=2;fontFamily=Inter;fontSource=https%3A%2F%2Ffonts.googleapis.com%2Fcss%3Ffamily%3DInter;fontSize=22;" vertex="1" parent="082UMFXGraRLCLUTV1O--1">
          <mxGeometry x="360" y="500" width="40" height="40" as="geometry" />
        </mxCell>
        <mxCell id="ALahCP11P62aG3O1CHly-17" value="c&lt;span style=&quot;color: rgba(0 , 0 , 0 , 0) ; font-family: monospace ; font-size: 0px&quot;&gt;%3CmxGraphModel%3E%3Croot%3E%3CmxCell%20id%3D%220%22%2F%3E%3CmxCell%20id%3D%221%22%20parent%3D%220%22%2F%3E%3CmxCell%20id%3D%222%22%20value%3D%22a%22%20style%3D%22rounded%3D0%3BwhiteSpace%3Dwrap%3Bhtml%3D1%3BstrokeWidth%3D2%3BfontFamily%3DInter%3BfontSource%3Dhttps%253A%252F%252Ffonts.googleapis.com%252Fcss%253Ffamily%253DInter%3BfontSize%3D22%3B%22%20vertex%3D%221%22%20parent%3D%221%22%3E%3CmxGeometry%20x%3D%22360%22%20y%3D%22160%22%20width%3D%2240%22%20height%3D%2240%22%20as%3D%22geometry%22%2F%3E%3C%2FmxCell%3E%3C%2Froot%3E%3C%2FmxGraphModel%3E&lt;/span&gt;&lt;span style=&quot;color: rgba(0 , 0 , 0 , 0) ; font-family: monospace ; font-size: 0px&quot;&gt;%3CmxGraphModel%3E%3Croot%3E%3CmxCell%20id%3D%220%22%2F%3E%3CmxCell%20id%3D%221%22%20parent%3D%220%22%2F%3E%3CmxCell%20id%3D%222%22%20value%3D%22a%22%20style%3D%22rounded%3D0%3BwhiteSpace%3Dwrap%3Bhtml%3D1%3BstrokeWidth%3D2%3BfontFamily%3DInter%3BfontSource%3Dhttps%253A%252F%252Ffonts.googleapis.com%252Fcss%253Ffamily%253DInter%3BfontSize%3D22%3B%22%20vertex%3D%221%22%20parent%3D%221%22%3E%3CmxGeometry%20x%3D%22360%22%20y%3D%22160%22%20width%3D%2240%22%20height%3D%2240%22%20as%3D%22geometry%22%2F%3E%3C%2FmxCell%3E%3C%2Froot%3E%3C%2FmxGraphModel%3E&lt;/span&gt;&lt;span style=&quot;color: rgba(0 , 0 , 0 , 0) ; font-family: monospace ; font-size: 0px&quot;&gt;%3CmxGraphModel%3E%3Croot%3E%3CmxCell%20id%3D%220%22%2F%3E%3CmxCell%20id%3D%221%22%20parent%3D%220%22%2F%3E%3CmxCell%20id%3D%222%22%20value%3D%22a%22%20style%3D%22rounded%3D0%3BwhiteSpace%3Dwrap%3Bhtml%3D1%3BstrokeWidth%3D2%3BfontFamily%3DInter%3BfontSource%3Dhttps%253A%252F%252Ffonts.googleapis.com%252Fcss%253Ffamily%253DInter%3BfontSize%3D22%3B%22%20vertex%3D%221%22%20parent%3D%221%22%3E%3CmxGeometry%20x%3D%22360%22%20y%3D%22160%22%20width%3D%2240%22%20height%3D%2240%22%20as%3D%22geometry%22%2F%3E%3C%2FmxCell%3E%3C%2Froot%3E%3C%2FmxGraphModel%3E&lt;/span&gt;" style="rounded=0;whiteSpace=wrap;html=1;strokeWidth=2;fontFamily=Inter;fontSource=https%3A%2F%2Ffonts.googleapis.com%2Fcss%3Ffamily%3DInter;fontSize=22;" vertex="1" parent="082UMFXGraRLCLUTV1O--1">
          <mxGeometry x="360" y="540" width="40" height="40" as="geometry" />
        </mxCell>
        <mxCell id="ALahCP11P62aG3O1CHly-18" value="d" style="rounded=0;whiteSpace=wrap;html=1;strokeWidth=2;fontFamily=Inter;fontSource=https%3A%2F%2Ffonts.googleapis.com%2Fcss%3Ffamily%3DInter;fontSize=22;" vertex="1" parent="082UMFXGraRLCLUTV1O--1">
          <mxGeometry x="360" y="580" width="40" height="40" as="geometry" />
        </mxCell>
        <mxCell id="ALahCP11P62aG3O1CHly-19" value="e" style="rounded=0;whiteSpace=wrap;html=1;strokeWidth=2;fontFamily=Inter;fontSource=https%3A%2F%2Ffonts.googleapis.com%2Fcss%3Ffamily%3DInter;fontSize=22;" vertex="1" parent="082UMFXGraRLCLUTV1O--1">
          <mxGeometry x="360" y="620" width="40" height="40" as="geometry" />
        </mxCell>
        <mxCell id="ALahCP11P62aG3O1CHly-20" value="5" style="rounded=0;whiteSpace=wrap;html=1;strokeWidth=2;fontFamily=Inter;fontSource=https%3A%2F%2Ffonts.googleapis.com%2Fcss%3Ffamily%3DInter;fontSize=22;" vertex="1" parent="082UMFXGraRLCLUTV1O--1">
          <mxGeometry x="400" y="460" width="40" height="40" as="geometry" />
        </mxCell>
        <mxCell id="ALahCP11P62aG3O1CHly-21" value="5" style="rounded=0;whiteSpace=wrap;html=1;strokeWidth=2;fontFamily=Inter;fontSource=https%3A%2F%2Ffonts.googleapis.com%2Fcss%3Ffamily%3DInter;fontSize=22;" vertex="1" parent="082UMFXGraRLCLUTV1O--1">
          <mxGeometry x="400" y="500" width="40" height="40" as="geometry" />
        </mxCell>
        <mxCell id="ALahCP11P62aG3O1CHly-22" value="6" style="rounded=0;whiteSpace=wrap;html=1;strokeWidth=2;fontFamily=Inter;fontSource=https%3A%2F%2Ffonts.googleapis.com%2Fcss%3Ffamily%3DInter;fontSize=22;fontColor=#990000;fontStyle=1" vertex="1" parent="082UMFXGraRLCLUTV1O--1">
          <mxGeometry x="400" y="540" width="40" height="40" as="geometry" />
        </mxCell>
        <mxCell id="ALahCP11P62aG3O1CHly-23" value="5" style="rounded=0;whiteSpace=wrap;html=1;strokeWidth=2;fontFamily=Inter;fontSource=https%3A%2F%2Ffonts.googleapis.com%2Fcss%3Ffamily%3DInter;fontSize=22;" vertex="1" parent="082UMFXGraRLCLUTV1O--1">
          <mxGeometry x="400" y="580" width="40" height="40" as="geometry" />
        </mxCell>
        <mxCell id="ALahCP11P62aG3O1CHly-24" value="5" style="rounded=0;whiteSpace=wrap;html=1;strokeWidth=2;fontFamily=Inter;fontSource=https%3A%2F%2Ffonts.googleapis.com%2Fcss%3Ffamily%3DInter;fontSize=22;" vertex="1" parent="082UMFXGraRLCLUTV1O--1">
          <mxGeometry x="400" y="620" width="40" height="40" as="geometry" />
        </mxCell>
        <mxCell id="ALahCP11P62aG3O1CHly-25" value="" style="labelPosition=right;align=left;strokeWidth=2;shape=mxgraph.mockup.markup.curlyBrace;html=1;shadow=0;dashed=0;direction=north;fontFamily=Inter;fontSource=https%3A%2F%2Ffonts.googleapis.com%2Fcss%3Ffamily%3DInter;fontSize=22;noLabel=1;fontColor=none;" vertex="1" parent="082UMFXGraRLCLUTV1O--1">
          <mxGeometry x="330" y="460" width="20" height="200" as="geometry" />
        </mxCell>
        <mxCell id="ALahCP11P62aG3O1CHly-26" value="Range Read Query" style="text;html=1;align=center;verticalAlign=middle;resizable=0;points=[];autosize=1;fontSize=22;fontFamily=Inter;fontColor=none;" vertex="1" parent="082UMFXGraRLCLUTV1O--1">
          <mxGeometry x="120" y="545" width="210" height="30" as="geometry" />
        </mxCell>
        <mxCell id="ALahCP11P62aG3O1CHly-27" value="&lt;font color=&quot;#000000&quot; face=&quot;Inter&quot;&gt;&lt;span style=&quot;font-size: 22px&quot;&gt;Validation Phase&lt;/span&gt;&lt;/font&gt;" style="text;html=1;align=center;verticalAlign=middle;resizable=0;points=[];autosize=1;fontColor=#990000;" vertex="1" parent="082UMFXGraRLCLUTV1O--1">
          <mxGeometry x="195" y="410" width="190" height="20" as="geometry" />
        </mxCell>
      </root>
    </mxGraphModel>
  </diagram>
  <diagram id="co09kJg4t7MLQ033Isyi" name="Page-4">
    <mxGraphModel dx="813" dy="453" grid="1" gridSize="10" guides="1" tooltips="1" connect="1" arrows="1" fold="1" page="1" pageScale="1" pageWidth="850" pageHeight="1100" math="0" shadow="0">
      <root>
        <mxCell id="BamOJnwxFwO82VgVZ6xR-0" />
        <mxCell id="BamOJnwxFwO82VgVZ6xR-1" parent="BamOJnwxFwO82VgVZ6xR-0" />
        <mxCell id="BamOJnwxFwO82VgVZ6xR-2" value="" style="rounded=0;whiteSpace=wrap;html=1;strokeWidth=2;fillColor=#2862a9;" vertex="1" parent="BamOJnwxFwO82VgVZ6xR-1">
          <mxGeometry x="40" y="150" width="150" height="180" as="geometry" />
        </mxCell>
        <mxCell id="BamOJnwxFwO82VgVZ6xR-3" value="" style="rounded=0;whiteSpace=wrap;html=1;strokeWidth=2;" vertex="1" parent="BamOJnwxFwO82VgVZ6xR-1">
          <mxGeometry x="49.38" y="194" width="131.25" height="76" as="geometry" />
        </mxCell>
        <mxCell id="BamOJnwxFwO82VgVZ6xR-4" value="" style="rounded=0;whiteSpace=wrap;html=1;strokeWidth=2;" vertex="1" parent="BamOJnwxFwO82VgVZ6xR-1">
          <mxGeometry x="49.375" y="282.5" width="131.25" height="35.625" as="geometry" />
        </mxCell>
        <mxCell id="BamOJnwxFwO82VgVZ6xR-5" value="" style="rounded=0;whiteSpace=wrap;html=1;strokeWidth=2;" vertex="1" parent="BamOJnwxFwO82VgVZ6xR-1">
          <mxGeometry x="115.01" y="160.005" width="65.625" height="23.75" as="geometry" />
        </mxCell>
        <mxCell id="BamOJnwxFwO82VgVZ6xR-111" value="" style="rounded=0;whiteSpace=wrap;html=1;strokeWidth=2;fillColor=#FFFFFF;" vertex="1" parent="BamOJnwxFwO82VgVZ6xR-1">
          <mxGeometry x="110" y="255.23000000000002" width="10" height="10" as="geometry" />
        </mxCell>
        <mxCell id="BamOJnwxFwO82VgVZ6xR-112" value="" style="rounded=0;whiteSpace=wrap;html=1;strokeWidth=2;fillColor=#FFFFFF;" vertex="1" parent="BamOJnwxFwO82VgVZ6xR-1">
          <mxGeometry x="124" y="255.23000000000002" width="10" height="10" as="geometry" />
        </mxCell>
        <mxCell id="BamOJnwxFwO82VgVZ6xR-113" value="" style="rounded=0;whiteSpace=wrap;html=1;strokeWidth=2;fillColor=#FFFFFF;" vertex="1" parent="BamOJnwxFwO82VgVZ6xR-1">
          <mxGeometry x="82" y="255.23000000000002" width="10" height="10" as="geometry" />
        </mxCell>
        <mxCell id="BamOJnwxFwO82VgVZ6xR-114" value="" style="rounded=0;whiteSpace=wrap;html=1;strokeWidth=2;fillColor=#FFFFFF;" vertex="1" parent="BamOJnwxFwO82VgVZ6xR-1">
          <mxGeometry x="96" y="255.23000000000002" width="10" height="10" as="geometry" />
        </mxCell>
        <mxCell id="BamOJnwxFwO82VgVZ6xR-115" value="" style="rounded=0;whiteSpace=wrap;html=1;strokeWidth=2;fillColor=#f8cecc;strokeColor=#b85450;" vertex="1" parent="BamOJnwxFwO82VgVZ6xR-1">
          <mxGeometry x="54" y="255.23000000000002" width="10" height="10" as="geometry" />
        </mxCell>
        <mxCell id="BamOJnwxFwO82VgVZ6xR-116" value="" style="rounded=0;whiteSpace=wrap;html=1;strokeWidth=2;fillColor=#FFFFFF;" vertex="1" parent="BamOJnwxFwO82VgVZ6xR-1">
          <mxGeometry x="68" y="255.23000000000002" width="10" height="10" as="geometry" />
        </mxCell>
        <mxCell id="BamOJnwxFwO82VgVZ6xR-117" value="" style="rounded=0;whiteSpace=wrap;html=1;strokeWidth=2;fillColor=#FFFFFF;" vertex="1" parent="BamOJnwxFwO82VgVZ6xR-1">
          <mxGeometry x="138" y="255.23000000000002" width="10" height="10" as="geometry" />
        </mxCell>
        <mxCell id="BamOJnwxFwO82VgVZ6xR-118" value="" style="rounded=0;whiteSpace=wrap;html=1;strokeWidth=2;fillColor=#FFFFFF;" vertex="1" parent="BamOJnwxFwO82VgVZ6xR-1">
          <mxGeometry x="166" y="255.23000000000002" width="10" height="10" as="geometry" />
        </mxCell>
        <mxCell id="BamOJnwxFwO82VgVZ6xR-119" value="" style="rounded=0;whiteSpace=wrap;html=1;strokeWidth=2;fillColor=#FFFFFF;" vertex="1" parent="BamOJnwxFwO82VgVZ6xR-1">
          <mxGeometry x="152" y="255.23000000000002" width="10" height="10" as="geometry" />
        </mxCell>
        <mxCell id="BamOJnwxFwO82VgVZ6xR-120" value="" style="rounded=0;whiteSpace=wrap;html=1;strokeWidth=2;fillColor=#FFFFFF;" vertex="1" parent="BamOJnwxFwO82VgVZ6xR-1">
          <mxGeometry x="110" y="241.23000000000002" width="10" height="10" as="geometry" />
        </mxCell>
        <mxCell id="BamOJnwxFwO82VgVZ6xR-121" value="" style="rounded=0;whiteSpace=wrap;html=1;strokeWidth=2;fillColor=#FFFFFF;" vertex="1" parent="BamOJnwxFwO82VgVZ6xR-1">
          <mxGeometry x="124" y="241.23000000000002" width="10" height="10" as="geometry" />
        </mxCell>
        <mxCell id="BamOJnwxFwO82VgVZ6xR-122" value="" style="rounded=0;whiteSpace=wrap;html=1;strokeWidth=2;fillColor=#FFFFFF;" vertex="1" parent="BamOJnwxFwO82VgVZ6xR-1">
          <mxGeometry x="82" y="241.23000000000002" width="10" height="10" as="geometry" />
        </mxCell>
        <mxCell id="BamOJnwxFwO82VgVZ6xR-123" value="" style="rounded=0;whiteSpace=wrap;html=1;strokeWidth=2;fillColor=#FFFFFF;" vertex="1" parent="BamOJnwxFwO82VgVZ6xR-1">
          <mxGeometry x="96" y="241.23000000000002" width="10" height="10" as="geometry" />
        </mxCell>
        <mxCell id="BamOJnwxFwO82VgVZ6xR-124" value="" style="rounded=0;whiteSpace=wrap;html=1;strokeWidth=2;fillColor=#FFFFFF;" vertex="1" parent="BamOJnwxFwO82VgVZ6xR-1">
          <mxGeometry x="54" y="241.23000000000002" width="10" height="10" as="geometry" />
        </mxCell>
        <mxCell id="BamOJnwxFwO82VgVZ6xR-125" value="" style="rounded=0;whiteSpace=wrap;html=1;strokeWidth=2;fillColor=#FFFFFF;" vertex="1" parent="BamOJnwxFwO82VgVZ6xR-1">
          <mxGeometry x="68" y="241.23000000000002" width="10" height="10" as="geometry" />
        </mxCell>
        <mxCell id="BamOJnwxFwO82VgVZ6xR-126" value="" style="rounded=0;whiteSpace=wrap;html=1;strokeWidth=2;fillColor=#FFFFFF;" vertex="1" parent="BamOJnwxFwO82VgVZ6xR-1">
          <mxGeometry x="138" y="241.23000000000002" width="10" height="10" as="geometry" />
        </mxCell>
        <mxCell id="BamOJnwxFwO82VgVZ6xR-127" value="" style="rounded=0;whiteSpace=wrap;html=1;strokeWidth=2;fillColor=#f8cecc;strokeColor=#b85450;" vertex="1" parent="BamOJnwxFwO82VgVZ6xR-1">
          <mxGeometry x="166" y="241.23000000000002" width="10" height="10" as="geometry" />
        </mxCell>
        <mxCell id="BamOJnwxFwO82VgVZ6xR-128" value="" style="rounded=0;whiteSpace=wrap;html=1;strokeWidth=2;fillColor=#FFFFFF;" vertex="1" parent="BamOJnwxFwO82VgVZ6xR-1">
          <mxGeometry x="152" y="241.23000000000002" width="10" height="10" as="geometry" />
        </mxCell>
        <mxCell id="BamOJnwxFwO82VgVZ6xR-129" value="" style="rounded=0;whiteSpace=wrap;html=1;strokeWidth=2;fillColor=#FFFFFF;" vertex="1" parent="BamOJnwxFwO82VgVZ6xR-1">
          <mxGeometry x="110" y="226.89" width="10" height="10" as="geometry" />
        </mxCell>
        <mxCell id="BamOJnwxFwO82VgVZ6xR-130" value="" style="rounded=0;whiteSpace=wrap;html=1;strokeWidth=2;fillColor=#FFFFFF;" vertex="1" parent="BamOJnwxFwO82VgVZ6xR-1">
          <mxGeometry x="124" y="226.89" width="10" height="10" as="geometry" />
        </mxCell>
        <mxCell id="BamOJnwxFwO82VgVZ6xR-131" value="" style="rounded=0;whiteSpace=wrap;html=1;strokeWidth=2;fillColor=#FFFFFF;" vertex="1" parent="BamOJnwxFwO82VgVZ6xR-1">
          <mxGeometry x="82" y="226.89" width="10" height="10" as="geometry" />
        </mxCell>
        <mxCell id="BamOJnwxFwO82VgVZ6xR-132" value="" style="rounded=0;whiteSpace=wrap;html=1;strokeWidth=2;fillColor=#FFFFFF;" vertex="1" parent="BamOJnwxFwO82VgVZ6xR-1">
          <mxGeometry x="96" y="226.89" width="10" height="10" as="geometry" />
        </mxCell>
        <mxCell id="BamOJnwxFwO82VgVZ6xR-133" value="" style="rounded=0;whiteSpace=wrap;html=1;strokeWidth=2;fillColor=#f8cecc;strokeColor=#b85450;" vertex="1" parent="BamOJnwxFwO82VgVZ6xR-1">
          <mxGeometry x="54" y="226.89" width="10" height="10" as="geometry" />
        </mxCell>
        <mxCell id="BamOJnwxFwO82VgVZ6xR-134" value="" style="rounded=0;whiteSpace=wrap;html=1;strokeWidth=2;fillColor=#FFFFFF;" vertex="1" parent="BamOJnwxFwO82VgVZ6xR-1">
          <mxGeometry x="68" y="226.89" width="10" height="10" as="geometry" />
        </mxCell>
        <mxCell id="BamOJnwxFwO82VgVZ6xR-135" value="" style="rounded=0;whiteSpace=wrap;html=1;strokeWidth=2;fillColor=#FFFFFF;" vertex="1" parent="BamOJnwxFwO82VgVZ6xR-1">
          <mxGeometry x="138" y="226.89" width="10" height="10" as="geometry" />
        </mxCell>
        <mxCell id="BamOJnwxFwO82VgVZ6xR-136" value="" style="rounded=0;whiteSpace=wrap;html=1;strokeWidth=2;fillColor=#FFFFFF;" vertex="1" parent="BamOJnwxFwO82VgVZ6xR-1">
          <mxGeometry x="166" y="226.89" width="10" height="10" as="geometry" />
        </mxCell>
        <mxCell id="BamOJnwxFwO82VgVZ6xR-137" value="" style="rounded=0;whiteSpace=wrap;html=1;strokeWidth=2;fillColor=#FFFFFF;" vertex="1" parent="BamOJnwxFwO82VgVZ6xR-1">
          <mxGeometry x="152" y="226.89" width="10" height="10" as="geometry" />
        </mxCell>
        <mxCell id="BamOJnwxFwO82VgVZ6xR-138" value="" style="rounded=0;whiteSpace=wrap;html=1;strokeWidth=2;fillColor=#FFFFFF;" vertex="1" parent="BamOJnwxFwO82VgVZ6xR-1">
          <mxGeometry x="110" y="212.89" width="10" height="10" as="geometry" />
        </mxCell>
        <mxCell id="BamOJnwxFwO82VgVZ6xR-139" value="" style="rounded=0;whiteSpace=wrap;html=1;strokeWidth=2;fillColor=#FFFFFF;" vertex="1" parent="BamOJnwxFwO82VgVZ6xR-1">
          <mxGeometry x="124" y="212.89" width="10" height="10" as="geometry" />
        </mxCell>
        <mxCell id="BamOJnwxFwO82VgVZ6xR-140" value="" style="rounded=0;whiteSpace=wrap;html=1;strokeWidth=2;fillColor=#f8cecc;strokeColor=#b85450;" vertex="1" parent="BamOJnwxFwO82VgVZ6xR-1">
          <mxGeometry x="82" y="212.89" width="10" height="10" as="geometry" />
        </mxCell>
        <mxCell id="BamOJnwxFwO82VgVZ6xR-141" value="" style="rounded=0;whiteSpace=wrap;html=1;strokeWidth=2;fillColor=#FFFFFF;" vertex="1" parent="BamOJnwxFwO82VgVZ6xR-1">
          <mxGeometry x="96" y="212.89" width="10" height="10" as="geometry" />
        </mxCell>
        <mxCell id="BamOJnwxFwO82VgVZ6xR-142" value="" style="rounded=0;whiteSpace=wrap;html=1;strokeWidth=2;fillColor=#FFFFFF;" vertex="1" parent="BamOJnwxFwO82VgVZ6xR-1">
          <mxGeometry x="54" y="212.89" width="10" height="10" as="geometry" />
        </mxCell>
        <mxCell id="BamOJnwxFwO82VgVZ6xR-143" value="" style="rounded=0;whiteSpace=wrap;html=1;strokeWidth=2;fillColor=#FFFFFF;" vertex="1" parent="BamOJnwxFwO82VgVZ6xR-1">
          <mxGeometry x="68" y="212.89" width="10" height="10" as="geometry" />
        </mxCell>
        <mxCell id="BamOJnwxFwO82VgVZ6xR-144" value="" style="rounded=0;whiteSpace=wrap;html=1;strokeWidth=2;fillColor=#FFFFFF;" vertex="1" parent="BamOJnwxFwO82VgVZ6xR-1">
          <mxGeometry x="138" y="212.89" width="10" height="10" as="geometry" />
        </mxCell>
        <mxCell id="BamOJnwxFwO82VgVZ6xR-145" value="" style="rounded=0;whiteSpace=wrap;html=1;strokeWidth=2;fillColor=#FFFFFF;" vertex="1" parent="BamOJnwxFwO82VgVZ6xR-1">
          <mxGeometry x="166" y="212.89" width="10" height="10" as="geometry" />
        </mxCell>
        <mxCell id="BamOJnwxFwO82VgVZ6xR-146" value="" style="rounded=0;whiteSpace=wrap;html=1;strokeWidth=2;fillColor=#f8cecc;strokeColor=#b85450;" vertex="1" parent="BamOJnwxFwO82VgVZ6xR-1">
          <mxGeometry x="152" y="212.89" width="10" height="10" as="geometry" />
        </mxCell>
        <mxCell id="BamOJnwxFwO82VgVZ6xR-147" value="" style="rounded=0;whiteSpace=wrap;html=1;strokeWidth=2;fillColor=#FFFFFF;" vertex="1" parent="BamOJnwxFwO82VgVZ6xR-1">
          <mxGeometry x="110" y="198.89" width="10" height="10" as="geometry" />
        </mxCell>
        <mxCell id="BamOJnwxFwO82VgVZ6xR-148" value="" style="rounded=0;whiteSpace=wrap;html=1;strokeWidth=2;fillColor=#FFFFFF;" vertex="1" parent="BamOJnwxFwO82VgVZ6xR-1">
          <mxGeometry x="124" y="198.89" width="10" height="10" as="geometry" />
        </mxCell>
        <mxCell id="BamOJnwxFwO82VgVZ6xR-149" value="" style="rounded=0;whiteSpace=wrap;html=1;strokeWidth=2;fillColor=#FFFFFF;" vertex="1" parent="BamOJnwxFwO82VgVZ6xR-1">
          <mxGeometry x="82" y="198.89" width="10" height="10" as="geometry" />
        </mxCell>
        <mxCell id="BamOJnwxFwO82VgVZ6xR-150" value="" style="rounded=0;whiteSpace=wrap;html=1;strokeWidth=2;fillColor=#FFFFFF;" vertex="1" parent="BamOJnwxFwO82VgVZ6xR-1">
          <mxGeometry x="96" y="198.89" width="10" height="10" as="geometry" />
        </mxCell>
        <mxCell id="BamOJnwxFwO82VgVZ6xR-151" value="" style="rounded=0;whiteSpace=wrap;html=1;strokeWidth=2;fillColor=#FFFFFF;" vertex="1" parent="BamOJnwxFwO82VgVZ6xR-1">
          <mxGeometry x="54" y="198.89" width="10" height="10" as="geometry" />
        </mxCell>
        <mxCell id="BamOJnwxFwO82VgVZ6xR-152" value="" style="rounded=0;whiteSpace=wrap;html=1;strokeWidth=2;fillColor=#FFFFFF;" vertex="1" parent="BamOJnwxFwO82VgVZ6xR-1">
          <mxGeometry x="68" y="198.89" width="10" height="10" as="geometry" />
        </mxCell>
        <mxCell id="BamOJnwxFwO82VgVZ6xR-153" value="" style="rounded=0;whiteSpace=wrap;html=1;strokeWidth=2;fillColor=#FFFFFF;" vertex="1" parent="BamOJnwxFwO82VgVZ6xR-1">
          <mxGeometry x="138" y="198.89" width="10" height="10" as="geometry" />
        </mxCell>
        <mxCell id="BamOJnwxFwO82VgVZ6xR-154" value="" style="rounded=0;whiteSpace=wrap;html=1;strokeWidth=2;fillColor=#FFFFFF;" vertex="1" parent="BamOJnwxFwO82VgVZ6xR-1">
          <mxGeometry x="166" y="198.89" width="10" height="10" as="geometry" />
        </mxCell>
        <mxCell id="BamOJnwxFwO82VgVZ6xR-155" value="" style="rounded=0;whiteSpace=wrap;html=1;strokeWidth=2;fillColor=#FFFFFF;" vertex="1" parent="BamOJnwxFwO82VgVZ6xR-1">
          <mxGeometry x="152" y="198.89" width="10" height="10" as="geometry" />
        </mxCell>
        <mxCell id="BamOJnwxFwO82VgVZ6xR-157" value="" style="rounded=0;whiteSpace=wrap;html=1;strokeWidth=2;fillColor=#2862a9;" vertex="1" parent="BamOJnwxFwO82VgVZ6xR-1">
          <mxGeometry x="200" y="150" width="150" height="180" as="geometry" />
        </mxCell>
        <mxCell id="BamOJnwxFwO82VgVZ6xR-158" value="" style="rounded=0;whiteSpace=wrap;html=1;strokeWidth=2;" vertex="1" parent="BamOJnwxFwO82VgVZ6xR-1">
          <mxGeometry x="209.38" y="194" width="131.25" height="76" as="geometry" />
        </mxCell>
        <mxCell id="BamOJnwxFwO82VgVZ6xR-159" value="" style="rounded=0;whiteSpace=wrap;html=1;strokeWidth=2;" vertex="1" parent="BamOJnwxFwO82VgVZ6xR-1">
          <mxGeometry x="209.375" y="282.5" width="131.25" height="35.625" as="geometry" />
        </mxCell>
        <mxCell id="BamOJnwxFwO82VgVZ6xR-206" style="edgeStyle=orthogonalEdgeStyle;orthogonalLoop=1;jettySize=auto;html=1;exitX=0.25;exitY=0;exitDx=0;exitDy=0;entryX=0.75;entryY=0;entryDx=0;entryDy=0;strokeWidth=2;endArrow=block;endFill=0;jumpSize=6;jumpStyle=none;rounded=0;shape=flexArrow;endWidth=8;endSize=4;width=3;fillColor=#ffffff;" edge="1" parent="BamOJnwxFwO82VgVZ6xR-1" source="BamOJnwxFwO82VgVZ6xR-160" target="BamOJnwxFwO82VgVZ6xR-5">
          <mxGeometry relative="1" as="geometry">
            <Array as="points">
              <mxPoint x="291" y="130" />
              <mxPoint x="164" y="130" />
            </Array>
          </mxGeometry>
        </mxCell>
        <mxCell id="BamOJnwxFwO82VgVZ6xR-160" value="" style="rounded=0;whiteSpace=wrap;html=1;strokeWidth=2;" vertex="1" parent="BamOJnwxFwO82VgVZ6xR-1">
          <mxGeometry x="275.01" y="160.005" width="65.625" height="23.75" as="geometry" />
        </mxCell>
        <mxCell id="BamOJnwxFwO82VgVZ6xR-161" value="" style="rounded=0;whiteSpace=wrap;html=1;strokeWidth=2;fillColor=#FFFFFF;" vertex="1" parent="BamOJnwxFwO82VgVZ6xR-1">
          <mxGeometry x="270" y="255.23000000000002" width="10" height="10" as="geometry" />
        </mxCell>
        <mxCell id="BamOJnwxFwO82VgVZ6xR-162" value="" style="rounded=0;whiteSpace=wrap;html=1;strokeWidth=2;fillColor=#f8cecc;strokeColor=#b85450;" vertex="1" parent="BamOJnwxFwO82VgVZ6xR-1">
          <mxGeometry x="284" y="255.23000000000002" width="10" height="10" as="geometry" />
        </mxCell>
        <mxCell id="BamOJnwxFwO82VgVZ6xR-163" value="" style="rounded=0;whiteSpace=wrap;html=1;strokeWidth=2;fillColor=#FFFFFF;" vertex="1" parent="BamOJnwxFwO82VgVZ6xR-1">
          <mxGeometry x="242" y="255.23000000000002" width="10" height="10" as="geometry" />
        </mxCell>
        <mxCell id="BamOJnwxFwO82VgVZ6xR-164" value="" style="rounded=0;whiteSpace=wrap;html=1;strokeWidth=2;fillColor=#FFFFFF;" vertex="1" parent="BamOJnwxFwO82VgVZ6xR-1">
          <mxGeometry x="256" y="255.23000000000002" width="10" height="10" as="geometry" />
        </mxCell>
        <mxCell id="BamOJnwxFwO82VgVZ6xR-165" value="" style="rounded=0;whiteSpace=wrap;html=1;strokeWidth=2;fillColor=#FFFFFF;" vertex="1" parent="BamOJnwxFwO82VgVZ6xR-1">
          <mxGeometry x="214" y="255.23000000000002" width="10" height="10" as="geometry" />
        </mxCell>
        <mxCell id="BamOJnwxFwO82VgVZ6xR-166" value="" style="rounded=0;whiteSpace=wrap;html=1;strokeWidth=2;fillColor=#FFFFFF;" vertex="1" parent="BamOJnwxFwO82VgVZ6xR-1">
          <mxGeometry x="228" y="255.23000000000002" width="10" height="10" as="geometry" />
        </mxCell>
        <mxCell id="BamOJnwxFwO82VgVZ6xR-167" value="" style="rounded=0;whiteSpace=wrap;html=1;strokeWidth=2;fillColor=#FFFFFF;" vertex="1" parent="BamOJnwxFwO82VgVZ6xR-1">
          <mxGeometry x="298" y="255.23000000000002" width="10" height="10" as="geometry" />
        </mxCell>
        <mxCell id="BamOJnwxFwO82VgVZ6xR-168" value="" style="rounded=0;whiteSpace=wrap;html=1;strokeWidth=2;fillColor=#FFFFFF;" vertex="1" parent="BamOJnwxFwO82VgVZ6xR-1">
          <mxGeometry x="326" y="255.23000000000002" width="10" height="10" as="geometry" />
        </mxCell>
        <mxCell id="BamOJnwxFwO82VgVZ6xR-169" value="" style="rounded=0;whiteSpace=wrap;html=1;strokeWidth=2;fillColor=#FFFFFF;" vertex="1" parent="BamOJnwxFwO82VgVZ6xR-1">
          <mxGeometry x="312" y="255.23000000000002" width="10" height="10" as="geometry" />
        </mxCell>
        <mxCell id="BamOJnwxFwO82VgVZ6xR-170" value="" style="rounded=0;whiteSpace=wrap;html=1;strokeWidth=2;fillColor=#FFFFFF;" vertex="1" parent="BamOJnwxFwO82VgVZ6xR-1">
          <mxGeometry x="270" y="241.23000000000002" width="10" height="10" as="geometry" />
        </mxCell>
        <mxCell id="BamOJnwxFwO82VgVZ6xR-171" value="" style="rounded=0;whiteSpace=wrap;html=1;strokeWidth=2;fillColor=#FFFFFF;" vertex="1" parent="BamOJnwxFwO82VgVZ6xR-1">
          <mxGeometry x="284" y="241.23000000000002" width="10" height="10" as="geometry" />
        </mxCell>
        <mxCell id="BamOJnwxFwO82VgVZ6xR-172" value="" style="rounded=0;whiteSpace=wrap;html=1;strokeWidth=2;fillColor=#FFFFFF;" vertex="1" parent="BamOJnwxFwO82VgVZ6xR-1">
          <mxGeometry x="242" y="241.23000000000002" width="10" height="10" as="geometry" />
        </mxCell>
        <mxCell id="BamOJnwxFwO82VgVZ6xR-173" value="" style="rounded=0;whiteSpace=wrap;html=1;strokeWidth=2;fillColor=#FFFFFF;" vertex="1" parent="BamOJnwxFwO82VgVZ6xR-1">
          <mxGeometry x="256" y="241.23000000000002" width="10" height="10" as="geometry" />
        </mxCell>
        <mxCell id="BamOJnwxFwO82VgVZ6xR-174" value="" style="rounded=0;whiteSpace=wrap;html=1;strokeWidth=2;fillColor=#f8cecc;strokeColor=#b85450;" vertex="1" parent="BamOJnwxFwO82VgVZ6xR-1">
          <mxGeometry x="214" y="241.23000000000002" width="10" height="10" as="geometry" />
        </mxCell>
        <mxCell id="BamOJnwxFwO82VgVZ6xR-175" value="" style="rounded=0;whiteSpace=wrap;html=1;strokeWidth=2;fillColor=#FFFFFF;" vertex="1" parent="BamOJnwxFwO82VgVZ6xR-1">
          <mxGeometry x="228" y="241.23000000000002" width="10" height="10" as="geometry" />
        </mxCell>
        <mxCell id="BamOJnwxFwO82VgVZ6xR-176" value="" style="rounded=0;whiteSpace=wrap;html=1;strokeWidth=2;fillColor=#FFFFFF;" vertex="1" parent="BamOJnwxFwO82VgVZ6xR-1">
          <mxGeometry x="298" y="241.23000000000002" width="10" height="10" as="geometry" />
        </mxCell>
        <mxCell id="BamOJnwxFwO82VgVZ6xR-177" value="" style="rounded=0;whiteSpace=wrap;html=1;strokeWidth=2;fillColor=#FFFFFF;" vertex="1" parent="BamOJnwxFwO82VgVZ6xR-1">
          <mxGeometry x="326" y="241.23000000000002" width="10" height="10" as="geometry" />
        </mxCell>
        <mxCell id="BamOJnwxFwO82VgVZ6xR-178" value="" style="rounded=0;whiteSpace=wrap;html=1;strokeWidth=2;fillColor=#FFFFFF;" vertex="1" parent="BamOJnwxFwO82VgVZ6xR-1">
          <mxGeometry x="312" y="241.23000000000002" width="10" height="10" as="geometry" />
        </mxCell>
        <mxCell id="BamOJnwxFwO82VgVZ6xR-179" value="" style="rounded=0;whiteSpace=wrap;html=1;strokeWidth=2;fillColor=#f8cecc;strokeColor=#b85450;" vertex="1" parent="BamOJnwxFwO82VgVZ6xR-1">
          <mxGeometry x="270" y="226.89" width="10" height="10" as="geometry" />
        </mxCell>
        <mxCell id="BamOJnwxFwO82VgVZ6xR-180" value="" style="rounded=0;whiteSpace=wrap;html=1;strokeWidth=2;fillColor=#FFFFFF;" vertex="1" parent="BamOJnwxFwO82VgVZ6xR-1">
          <mxGeometry x="284" y="226.89" width="10" height="10" as="geometry" />
        </mxCell>
        <mxCell id="BamOJnwxFwO82VgVZ6xR-181" value="" style="rounded=0;whiteSpace=wrap;html=1;strokeWidth=2;fillColor=#FFFFFF;" vertex="1" parent="BamOJnwxFwO82VgVZ6xR-1">
          <mxGeometry x="242" y="226.89" width="10" height="10" as="geometry" />
        </mxCell>
        <mxCell id="BamOJnwxFwO82VgVZ6xR-182" value="" style="rounded=0;whiteSpace=wrap;html=1;strokeWidth=2;fillColor=#FFFFFF;" vertex="1" parent="BamOJnwxFwO82VgVZ6xR-1">
          <mxGeometry x="256" y="226.89" width="10" height="10" as="geometry" />
        </mxCell>
        <mxCell id="BamOJnwxFwO82VgVZ6xR-183" value="" style="rounded=0;whiteSpace=wrap;html=1;strokeWidth=2;fillColor=#FFFFFF;" vertex="1" parent="BamOJnwxFwO82VgVZ6xR-1">
          <mxGeometry x="214" y="226.89" width="10" height="10" as="geometry" />
        </mxCell>
        <mxCell id="BamOJnwxFwO82VgVZ6xR-184" value="" style="rounded=0;whiteSpace=wrap;html=1;strokeWidth=2;fillColor=#FFFFFF;" vertex="1" parent="BamOJnwxFwO82VgVZ6xR-1">
          <mxGeometry x="228" y="226.89" width="10" height="10" as="geometry" />
        </mxCell>
        <mxCell id="BamOJnwxFwO82VgVZ6xR-185" value="" style="rounded=0;whiteSpace=wrap;html=1;strokeWidth=2;fillColor=#FFFFFF;" vertex="1" parent="BamOJnwxFwO82VgVZ6xR-1">
          <mxGeometry x="298" y="226.89" width="10" height="10" as="geometry" />
        </mxCell>
        <mxCell id="BamOJnwxFwO82VgVZ6xR-186" value="" style="rounded=0;whiteSpace=wrap;html=1;strokeWidth=2;fillColor=#FFFFFF;" vertex="1" parent="BamOJnwxFwO82VgVZ6xR-1">
          <mxGeometry x="326" y="226.89" width="10" height="10" as="geometry" />
        </mxCell>
        <mxCell id="BamOJnwxFwO82VgVZ6xR-187" value="" style="rounded=0;whiteSpace=wrap;html=1;strokeWidth=2;fillColor=#f8cecc;strokeColor=#b85450;" vertex="1" parent="BamOJnwxFwO82VgVZ6xR-1">
          <mxGeometry x="312" y="226.89" width="10" height="10" as="geometry" />
        </mxCell>
        <mxCell id="BamOJnwxFwO82VgVZ6xR-188" value="" style="rounded=0;whiteSpace=wrap;html=1;strokeWidth=2;" vertex="1" parent="BamOJnwxFwO82VgVZ6xR-1">
          <mxGeometry x="270" y="212.89" width="10" height="10" as="geometry" />
        </mxCell>
        <mxCell id="BamOJnwxFwO82VgVZ6xR-189" value="" style="rounded=0;whiteSpace=wrap;html=1;strokeWidth=2;fillColor=#FFFFFF;" vertex="1" parent="BamOJnwxFwO82VgVZ6xR-1">
          <mxGeometry x="284" y="212.89" width="10" height="10" as="geometry" />
        </mxCell>
        <mxCell id="BamOJnwxFwO82VgVZ6xR-190" value="" style="rounded=0;whiteSpace=wrap;html=1;strokeWidth=2;" vertex="1" parent="BamOJnwxFwO82VgVZ6xR-1">
          <mxGeometry x="242" y="212.89" width="10" height="10" as="geometry" />
        </mxCell>
        <mxCell id="BamOJnwxFwO82VgVZ6xR-191" value="" style="rounded=0;whiteSpace=wrap;html=1;strokeWidth=2;fillColor=#FFFFFF;" vertex="1" parent="BamOJnwxFwO82VgVZ6xR-1">
          <mxGeometry x="256" y="212.89" width="10" height="10" as="geometry" />
        </mxCell>
        <mxCell id="BamOJnwxFwO82VgVZ6xR-192" value="" style="rounded=0;whiteSpace=wrap;html=1;strokeWidth=2;fillColor=#FFFFFF;" vertex="1" parent="BamOJnwxFwO82VgVZ6xR-1">
          <mxGeometry x="214" y="212.89" width="10" height="10" as="geometry" />
        </mxCell>
        <mxCell id="BamOJnwxFwO82VgVZ6xR-193" value="" style="rounded=0;whiteSpace=wrap;html=1;strokeWidth=2;fillColor=#FFFFFF;" vertex="1" parent="BamOJnwxFwO82VgVZ6xR-1">
          <mxGeometry x="228" y="212.89" width="10" height="10" as="geometry" />
        </mxCell>
        <mxCell id="BamOJnwxFwO82VgVZ6xR-194" value="" style="rounded=0;whiteSpace=wrap;html=1;strokeWidth=2;fillColor=#f8cecc;strokeColor=#b85450;" vertex="1" parent="BamOJnwxFwO82VgVZ6xR-1">
          <mxGeometry x="298" y="212.89" width="10" height="10" as="geometry" />
        </mxCell>
        <mxCell id="BamOJnwxFwO82VgVZ6xR-195" value="" style="rounded=0;whiteSpace=wrap;html=1;strokeWidth=2;fillColor=#FFFFFF;" vertex="1" parent="BamOJnwxFwO82VgVZ6xR-1">
          <mxGeometry x="326" y="212.89" width="10" height="10" as="geometry" />
        </mxCell>
        <mxCell id="BamOJnwxFwO82VgVZ6xR-196" value="" style="rounded=0;whiteSpace=wrap;html=1;strokeWidth=2;fillColor=#FFFFFF;" vertex="1" parent="BamOJnwxFwO82VgVZ6xR-1">
          <mxGeometry x="312" y="212.89" width="10" height="10" as="geometry" />
        </mxCell>
        <mxCell id="BamOJnwxFwO82VgVZ6xR-197" value="" style="rounded=0;whiteSpace=wrap;html=1;strokeWidth=2;fillColor=#FFFFFF;" vertex="1" parent="BamOJnwxFwO82VgVZ6xR-1">
          <mxGeometry x="270" y="198.89" width="10" height="10" as="geometry" />
        </mxCell>
        <mxCell id="BamOJnwxFwO82VgVZ6xR-198" value="" style="rounded=0;whiteSpace=wrap;html=1;strokeWidth=2;fillColor=#FFFFFF;" vertex="1" parent="BamOJnwxFwO82VgVZ6xR-1">
          <mxGeometry x="284" y="198.89" width="10" height="10" as="geometry" />
        </mxCell>
        <mxCell id="BamOJnwxFwO82VgVZ6xR-199" value="" style="rounded=0;whiteSpace=wrap;html=1;strokeWidth=2;fillColor=#FFFFFF;" vertex="1" parent="BamOJnwxFwO82VgVZ6xR-1">
          <mxGeometry x="242" y="198.89" width="10" height="10" as="geometry" />
        </mxCell>
        <mxCell id="BamOJnwxFwO82VgVZ6xR-200" value="" style="rounded=0;whiteSpace=wrap;html=1;strokeWidth=2;fillColor=#f8cecc;strokeColor=#b85450;" vertex="1" parent="BamOJnwxFwO82VgVZ6xR-1">
          <mxGeometry x="256" y="198.89" width="10" height="10" as="geometry" />
        </mxCell>
        <mxCell id="BamOJnwxFwO82VgVZ6xR-201" value="" style="rounded=0;whiteSpace=wrap;html=1;strokeWidth=2;fillColor=#FFFFFF;" vertex="1" parent="BamOJnwxFwO82VgVZ6xR-1">
          <mxGeometry x="214" y="198.89" width="10" height="10" as="geometry" />
        </mxCell>
        <mxCell id="BamOJnwxFwO82VgVZ6xR-202" value="" style="rounded=0;whiteSpace=wrap;html=1;strokeWidth=2;fillColor=#FFFFFF;" vertex="1" parent="BamOJnwxFwO82VgVZ6xR-1">
          <mxGeometry x="228" y="198.89" width="10" height="10" as="geometry" />
        </mxCell>
        <mxCell id="BamOJnwxFwO82VgVZ6xR-203" value="" style="rounded=0;whiteSpace=wrap;html=1;strokeWidth=2;fillColor=#FFFFFF;" vertex="1" parent="BamOJnwxFwO82VgVZ6xR-1">
          <mxGeometry x="298" y="198.89" width="10" height="10" as="geometry" />
        </mxCell>
        <mxCell id="BamOJnwxFwO82VgVZ6xR-204" value="" style="rounded=0;whiteSpace=wrap;html=1;strokeWidth=2;fillColor=#FFFFFF;" vertex="1" parent="BamOJnwxFwO82VgVZ6xR-1">
          <mxGeometry x="326" y="198.89" width="10" height="10" as="geometry" />
        </mxCell>
        <mxCell id="BamOJnwxFwO82VgVZ6xR-205" value="" style="rounded=0;whiteSpace=wrap;html=1;strokeWidth=2;fillColor=#FFFFFF;" vertex="1" parent="BamOJnwxFwO82VgVZ6xR-1">
          <mxGeometry x="312" y="198.89" width="10" height="10" as="geometry" />
        </mxCell>
        <mxCell id="BamOJnwxFwO82VgVZ6xR-263" value="" style="group" vertex="1" connectable="0" parent="BamOJnwxFwO82VgVZ6xR-1">
          <mxGeometry x="325" y="130" width="186" height="200" as="geometry" />
        </mxCell>
        <mxCell id="BamOJnwxFwO82VgVZ6xR-264" value="" style="rounded=0;whiteSpace=wrap;html=1;strokeWidth=2;fillColor=#2862a9;" vertex="1" parent="BamOJnwxFwO82VgVZ6xR-263">
          <mxGeometry x="36" y="20" width="150" height="180" as="geometry" />
        </mxCell>
        <mxCell id="BamOJnwxFwO82VgVZ6xR-265" value="" style="rounded=0;whiteSpace=wrap;html=1;strokeWidth=2;" vertex="1" parent="BamOJnwxFwO82VgVZ6xR-263">
          <mxGeometry x="45.379999999999995" y="64" width="131.25" height="76" as="geometry" />
        </mxCell>
        <mxCell id="BamOJnwxFwO82VgVZ6xR-266" value="" style="rounded=0;whiteSpace=wrap;html=1;strokeWidth=2;" vertex="1" parent="BamOJnwxFwO82VgVZ6xR-263">
          <mxGeometry x="45.375" y="152.5" width="131.25" height="35.625" as="geometry" />
        </mxCell>
        <mxCell id="BamOJnwxFwO82VgVZ6xR-267" style="edgeStyle=orthogonalEdgeStyle;orthogonalLoop=1;jettySize=auto;html=1;exitX=0.25;exitY=0;exitDx=0;exitDy=0;entryX=0.75;entryY=0;entryDx=0;entryDy=0;strokeWidth=2;endArrow=block;endFill=0;jumpSize=6;jumpStyle=none;rounded=0;shape=flexArrow;endWidth=8;endSize=4;width=3;fillColor=#ffffff;" edge="1" parent="BamOJnwxFwO82VgVZ6xR-263" source="BamOJnwxFwO82VgVZ6xR-268">
          <mxGeometry relative="1" as="geometry">
            <mxPoint x="0.2287499999999909" y="30.004999999999995" as="targetPoint" />
            <Array as="points">
              <mxPoint x="127" />
              <mxPoint />
            </Array>
          </mxGeometry>
        </mxCell>
        <mxCell id="BamOJnwxFwO82VgVZ6xR-268" value="" style="rounded=0;whiteSpace=wrap;html=1;strokeWidth=2;" vertex="1" parent="BamOJnwxFwO82VgVZ6xR-263">
          <mxGeometry x="111.00999999999999" y="30.004999999999995" width="65.625" height="23.75" as="geometry" />
        </mxCell>
        <mxCell id="BamOJnwxFwO82VgVZ6xR-269" value="" style="rounded=0;whiteSpace=wrap;html=1;strokeWidth=2;fillColor=#FFFFFF;" vertex="1" parent="BamOJnwxFwO82VgVZ6xR-263">
          <mxGeometry x="106" y="125.23000000000002" width="10" height="10" as="geometry" />
        </mxCell>
        <mxCell id="BamOJnwxFwO82VgVZ6xR-270" value="" style="rounded=0;whiteSpace=wrap;html=1;strokeWidth=2;fillColor=#FFFFFF;" vertex="1" parent="BamOJnwxFwO82VgVZ6xR-263">
          <mxGeometry x="120" y="125.23000000000002" width="10" height="10" as="geometry" />
        </mxCell>
        <mxCell id="BamOJnwxFwO82VgVZ6xR-271" value="" style="rounded=0;whiteSpace=wrap;html=1;strokeWidth=2;fillColor=#FFFFFF;" vertex="1" parent="BamOJnwxFwO82VgVZ6xR-263">
          <mxGeometry x="78" y="125.23000000000002" width="10" height="10" as="geometry" />
        </mxCell>
        <mxCell id="BamOJnwxFwO82VgVZ6xR-272" value="" style="rounded=0;whiteSpace=wrap;html=1;strokeWidth=2;fillColor=#FFFFFF;" vertex="1" parent="BamOJnwxFwO82VgVZ6xR-263">
          <mxGeometry x="92" y="125.23000000000002" width="10" height="10" as="geometry" />
        </mxCell>
        <mxCell id="BamOJnwxFwO82VgVZ6xR-273" value="" style="rounded=0;whiteSpace=wrap;html=1;strokeWidth=2;fillColor=#FFFFFF;" vertex="1" parent="BamOJnwxFwO82VgVZ6xR-263">
          <mxGeometry x="50" y="125.23000000000002" width="10" height="10" as="geometry" />
        </mxCell>
        <mxCell id="BamOJnwxFwO82VgVZ6xR-274" value="" style="rounded=0;whiteSpace=wrap;html=1;strokeWidth=2;fillColor=#FFFFFF;" vertex="1" parent="BamOJnwxFwO82VgVZ6xR-263">
          <mxGeometry x="64" y="125.23000000000002" width="10" height="10" as="geometry" />
        </mxCell>
        <mxCell id="BamOJnwxFwO82VgVZ6xR-275" value="" style="rounded=0;whiteSpace=wrap;html=1;strokeWidth=2;fillColor=#FFFFFF;" vertex="1" parent="BamOJnwxFwO82VgVZ6xR-263">
          <mxGeometry x="134" y="125.23000000000002" width="10" height="10" as="geometry" />
        </mxCell>
        <mxCell id="BamOJnwxFwO82VgVZ6xR-276" value="" style="rounded=0;whiteSpace=wrap;html=1;strokeWidth=2;fillColor=#FFFFFF;" vertex="1" parent="BamOJnwxFwO82VgVZ6xR-263">
          <mxGeometry x="162" y="125.23000000000002" width="10" height="10" as="geometry" />
        </mxCell>
        <mxCell id="BamOJnwxFwO82VgVZ6xR-277" value="" style="rounded=0;whiteSpace=wrap;html=1;strokeWidth=2;fillColor=#FFFFFF;" vertex="1" parent="BamOJnwxFwO82VgVZ6xR-263">
          <mxGeometry x="148" y="125.23000000000002" width="10" height="10" as="geometry" />
        </mxCell>
        <mxCell id="BamOJnwxFwO82VgVZ6xR-278" value="" style="rounded=0;whiteSpace=wrap;html=1;strokeWidth=2;fillColor=#FFFFFF;" vertex="1" parent="BamOJnwxFwO82VgVZ6xR-263">
          <mxGeometry x="106" y="111.23000000000002" width="10" height="10" as="geometry" />
        </mxCell>
        <mxCell id="BamOJnwxFwO82VgVZ6xR-279" value="" style="rounded=0;whiteSpace=wrap;html=1;strokeWidth=2;fillColor=#FFFFFF;" vertex="1" parent="BamOJnwxFwO82VgVZ6xR-263">
          <mxGeometry x="120" y="111.23000000000002" width="10" height="10" as="geometry" />
        </mxCell>
        <mxCell id="BamOJnwxFwO82VgVZ6xR-280" value="" style="rounded=0;whiteSpace=wrap;html=1;strokeWidth=2;fillColor=#FFFFFF;" vertex="1" parent="BamOJnwxFwO82VgVZ6xR-263">
          <mxGeometry x="78" y="111.23000000000002" width="10" height="10" as="geometry" />
        </mxCell>
        <mxCell id="BamOJnwxFwO82VgVZ6xR-281" value="" style="rounded=0;whiteSpace=wrap;html=1;strokeWidth=2;fillColor=#FFFFFF;" vertex="1" parent="BamOJnwxFwO82VgVZ6xR-263">
          <mxGeometry x="92" y="111.23000000000002" width="10" height="10" as="geometry" />
        </mxCell>
        <mxCell id="BamOJnwxFwO82VgVZ6xR-282" value="" style="rounded=0;whiteSpace=wrap;html=1;strokeWidth=2;fillColor=#f8cecc;strokeColor=#b85450;" vertex="1" parent="BamOJnwxFwO82VgVZ6xR-263">
          <mxGeometry x="50" y="111.23000000000002" width="10" height="10" as="geometry" />
        </mxCell>
        <mxCell id="BamOJnwxFwO82VgVZ6xR-283" value="" style="rounded=0;whiteSpace=wrap;html=1;strokeWidth=2;fillColor=#FFFFFF;" vertex="1" parent="BamOJnwxFwO82VgVZ6xR-263">
          <mxGeometry x="64" y="111.23000000000002" width="10" height="10" as="geometry" />
        </mxCell>
        <mxCell id="BamOJnwxFwO82VgVZ6xR-284" value="" style="rounded=0;whiteSpace=wrap;html=1;strokeWidth=2;fillColor=#FFFFFF;" vertex="1" parent="BamOJnwxFwO82VgVZ6xR-263">
          <mxGeometry x="134" y="111.23000000000002" width="10" height="10" as="geometry" />
        </mxCell>
        <mxCell id="BamOJnwxFwO82VgVZ6xR-285" value="" style="rounded=0;whiteSpace=wrap;html=1;strokeWidth=2;fillColor=#FFFFFF;" vertex="1" parent="BamOJnwxFwO82VgVZ6xR-263">
          <mxGeometry x="162" y="111.23000000000002" width="10" height="10" as="geometry" />
        </mxCell>
        <mxCell id="BamOJnwxFwO82VgVZ6xR-286" value="" style="rounded=0;whiteSpace=wrap;html=1;strokeWidth=2;fillColor=#f8cecc;strokeColor=#b85450;" vertex="1" parent="BamOJnwxFwO82VgVZ6xR-263">
          <mxGeometry x="148" y="111.23000000000002" width="10" height="10" as="geometry" />
        </mxCell>
        <mxCell id="BamOJnwxFwO82VgVZ6xR-287" value="" style="rounded=0;whiteSpace=wrap;html=1;strokeWidth=2;fillColor=#FFFFFF;" vertex="1" parent="BamOJnwxFwO82VgVZ6xR-263">
          <mxGeometry x="106" y="96.88999999999999" width="10" height="10" as="geometry" />
        </mxCell>
        <mxCell id="BamOJnwxFwO82VgVZ6xR-288" value="" style="rounded=0;whiteSpace=wrap;html=1;strokeWidth=2;fillColor=#FFFFFF;" vertex="1" parent="BamOJnwxFwO82VgVZ6xR-263">
          <mxGeometry x="120" y="96.88999999999999" width="10" height="10" as="geometry" />
        </mxCell>
        <mxCell id="BamOJnwxFwO82VgVZ6xR-289" value="" style="rounded=0;whiteSpace=wrap;html=1;strokeWidth=2;fillColor=#FFFFFF;" vertex="1" parent="BamOJnwxFwO82VgVZ6xR-263">
          <mxGeometry x="78" y="96.88999999999999" width="10" height="10" as="geometry" />
        </mxCell>
        <mxCell id="BamOJnwxFwO82VgVZ6xR-290" value="" style="rounded=0;whiteSpace=wrap;html=1;strokeWidth=2;fillColor=#FFFFFF;" vertex="1" parent="BamOJnwxFwO82VgVZ6xR-263">
          <mxGeometry x="92" y="96.88999999999999" width="10" height="10" as="geometry" />
        </mxCell>
        <mxCell id="BamOJnwxFwO82VgVZ6xR-291" value="" style="rounded=0;whiteSpace=wrap;html=1;strokeWidth=2;fillColor=#FFFFFF;" vertex="1" parent="BamOJnwxFwO82VgVZ6xR-263">
          <mxGeometry x="50" y="96.88999999999999" width="10" height="10" as="geometry" />
        </mxCell>
        <mxCell id="BamOJnwxFwO82VgVZ6xR-292" value="" style="rounded=0;whiteSpace=wrap;html=1;strokeWidth=2;fillColor=#FFFFFF;" vertex="1" parent="BamOJnwxFwO82VgVZ6xR-263">
          <mxGeometry x="64" y="96.88999999999999" width="10" height="10" as="geometry" />
        </mxCell>
        <mxCell id="BamOJnwxFwO82VgVZ6xR-293" value="" style="rounded=0;whiteSpace=wrap;html=1;strokeWidth=2;fillColor=#FFFFFF;" vertex="1" parent="BamOJnwxFwO82VgVZ6xR-263">
          <mxGeometry x="134" y="96.88999999999999" width="10" height="10" as="geometry" />
        </mxCell>
        <mxCell id="BamOJnwxFwO82VgVZ6xR-294" value="" style="rounded=0;whiteSpace=wrap;html=1;strokeWidth=2;fillColor=#FFFFFF;" vertex="1" parent="BamOJnwxFwO82VgVZ6xR-263">
          <mxGeometry x="162" y="96.88999999999999" width="10" height="10" as="geometry" />
        </mxCell>
        <mxCell id="BamOJnwxFwO82VgVZ6xR-295" value="" style="rounded=0;whiteSpace=wrap;html=1;strokeWidth=2;fillColor=#FFFFFF;" vertex="1" parent="BamOJnwxFwO82VgVZ6xR-263">
          <mxGeometry x="148" y="96.88999999999999" width="10" height="10" as="geometry" />
        </mxCell>
        <mxCell id="BamOJnwxFwO82VgVZ6xR-296" value="" style="rounded=0;whiteSpace=wrap;html=1;strokeWidth=2;fillColor=#FFFFFF;" vertex="1" parent="BamOJnwxFwO82VgVZ6xR-263">
          <mxGeometry x="106" y="82.88999999999999" width="10" height="10" as="geometry" />
        </mxCell>
        <mxCell id="BamOJnwxFwO82VgVZ6xR-297" value="" style="rounded=0;whiteSpace=wrap;html=1;strokeWidth=2;fillColor=#f8cecc;strokeColor=#b85450;" vertex="1" parent="BamOJnwxFwO82VgVZ6xR-263">
          <mxGeometry x="120" y="82.88999999999999" width="10" height="10" as="geometry" />
        </mxCell>
        <mxCell id="BamOJnwxFwO82VgVZ6xR-298" value="" style="rounded=0;whiteSpace=wrap;html=1;strokeWidth=2;" vertex="1" parent="BamOJnwxFwO82VgVZ6xR-263">
          <mxGeometry x="78" y="82.88999999999999" width="10" height="10" as="geometry" />
        </mxCell>
        <mxCell id="BamOJnwxFwO82VgVZ6xR-299" value="" style="rounded=0;whiteSpace=wrap;html=1;strokeWidth=2;fillColor=#f8cecc;strokeColor=#b85450;" vertex="1" parent="BamOJnwxFwO82VgVZ6xR-263">
          <mxGeometry x="92" y="82.88999999999999" width="10" height="10" as="geometry" />
        </mxCell>
        <mxCell id="BamOJnwxFwO82VgVZ6xR-300" value="" style="rounded=0;whiteSpace=wrap;html=1;strokeWidth=2;fillColor=#FFFFFF;" vertex="1" parent="BamOJnwxFwO82VgVZ6xR-263">
          <mxGeometry x="50" y="82.88999999999999" width="10" height="10" as="geometry" />
        </mxCell>
        <mxCell id="BamOJnwxFwO82VgVZ6xR-301" value="" style="rounded=0;whiteSpace=wrap;html=1;strokeWidth=2;fillColor=#FFFFFF;" vertex="1" parent="BamOJnwxFwO82VgVZ6xR-263">
          <mxGeometry x="64" y="82.88999999999999" width="10" height="10" as="geometry" />
        </mxCell>
        <mxCell id="BamOJnwxFwO82VgVZ6xR-302" value="" style="rounded=0;whiteSpace=wrap;html=1;strokeWidth=2;fillColor=#FFFFFF;" vertex="1" parent="BamOJnwxFwO82VgVZ6xR-263">
          <mxGeometry x="134" y="82.88999999999999" width="10" height="10" as="geometry" />
        </mxCell>
        <mxCell id="BamOJnwxFwO82VgVZ6xR-303" value="" style="rounded=0;whiteSpace=wrap;html=1;strokeWidth=2;fillColor=#FFFFFF;" vertex="1" parent="BamOJnwxFwO82VgVZ6xR-263">
          <mxGeometry x="162" y="82.88999999999999" width="10" height="10" as="geometry" />
        </mxCell>
        <mxCell id="BamOJnwxFwO82VgVZ6xR-304" value="" style="rounded=0;whiteSpace=wrap;html=1;strokeWidth=2;fillColor=#FFFFFF;" vertex="1" parent="BamOJnwxFwO82VgVZ6xR-263">
          <mxGeometry x="148" y="82.88999999999999" width="10" height="10" as="geometry" />
        </mxCell>
        <mxCell id="BamOJnwxFwO82VgVZ6xR-305" value="" style="rounded=0;whiteSpace=wrap;html=1;strokeWidth=2;fillColor=#FFFFFF;" vertex="1" parent="BamOJnwxFwO82VgVZ6xR-263">
          <mxGeometry x="106" y="68.88999999999999" width="10" height="10" as="geometry" />
        </mxCell>
        <mxCell id="BamOJnwxFwO82VgVZ6xR-306" value="" style="rounded=0;whiteSpace=wrap;html=1;strokeWidth=2;fillColor=#FFFFFF;" vertex="1" parent="BamOJnwxFwO82VgVZ6xR-263">
          <mxGeometry x="120" y="68.88999999999999" width="10" height="10" as="geometry" />
        </mxCell>
        <mxCell id="BamOJnwxFwO82VgVZ6xR-307" value="" style="rounded=0;whiteSpace=wrap;html=1;strokeWidth=2;" vertex="1" parent="BamOJnwxFwO82VgVZ6xR-263">
          <mxGeometry x="78" y="68.88999999999999" width="10" height="10" as="geometry" />
        </mxCell>
        <mxCell id="BamOJnwxFwO82VgVZ6xR-308" value="" style="rounded=0;whiteSpace=wrap;html=1;strokeWidth=2;fillColor=#FFFFFF;" vertex="1" parent="BamOJnwxFwO82VgVZ6xR-263">
          <mxGeometry x="92" y="68.88999999999999" width="10" height="10" as="geometry" />
        </mxCell>
        <mxCell id="BamOJnwxFwO82VgVZ6xR-309" value="" style="rounded=0;whiteSpace=wrap;html=1;strokeWidth=2;fillColor=#FFFFFF;" vertex="1" parent="BamOJnwxFwO82VgVZ6xR-263">
          <mxGeometry x="50" y="68.88999999999999" width="10" height="10" as="geometry" />
        </mxCell>
        <mxCell id="BamOJnwxFwO82VgVZ6xR-310" value="" style="rounded=0;whiteSpace=wrap;html=1;strokeWidth=2;fillColor=#f8cecc;strokeColor=#b85450;" vertex="1" parent="BamOJnwxFwO82VgVZ6xR-263">
          <mxGeometry x="64" y="68.88999999999999" width="10" height="10" as="geometry" />
        </mxCell>
        <mxCell id="BamOJnwxFwO82VgVZ6xR-311" value="" style="rounded=0;whiteSpace=wrap;html=1;strokeWidth=2;fillColor=#FFFFFF;" vertex="1" parent="BamOJnwxFwO82VgVZ6xR-263">
          <mxGeometry x="134" y="68.88999999999999" width="10" height="10" as="geometry" />
        </mxCell>
        <mxCell id="BamOJnwxFwO82VgVZ6xR-312" value="" style="rounded=0;whiteSpace=wrap;html=1;strokeWidth=2;fillColor=#FFFFFF;" vertex="1" parent="BamOJnwxFwO82VgVZ6xR-263">
          <mxGeometry x="162" y="68.88999999999999" width="10" height="10" as="geometry" />
        </mxCell>
        <mxCell id="BamOJnwxFwO82VgVZ6xR-313" value="" style="rounded=0;whiteSpace=wrap;html=1;strokeWidth=2;fillColor=#FFFFFF;" vertex="1" parent="BamOJnwxFwO82VgVZ6xR-263">
          <mxGeometry x="148" y="68.88999999999999" width="10" height="10" as="geometry" />
        </mxCell>
        <mxCell id="BamOJnwxFwO82VgVZ6xR-367" value="l&amp;nbsp; &amp;nbsp; &amp;nbsp; &amp;nbsp;I I&amp;nbsp; &amp;nbsp; &amp;nbsp; &amp;nbsp; &amp;nbsp; I&amp;nbsp; &amp;nbsp; &amp;nbsp; I&amp;nbsp; &amp;nbsp; &amp;nbsp; &amp;nbsp;" style="rounded=0;whiteSpace=wrap;html=1;strokeWidth=2;fillColor=#FFFFFF;spacingBottom=1;fontSize=11;fontStyle=1;fontColor=#990000;" vertex="1" parent="BamOJnwxFwO82VgVZ6xR-263">
          <mxGeometry x="50.69" y="173" width="120.62" height="10" as="geometry" />
        </mxCell>
        <mxCell id="BamOJnwxFwO82VgVZ6xR-314" value="" style="group" vertex="1" connectable="0" parent="BamOJnwxFwO82VgVZ6xR-1">
          <mxGeometry x="485" y="130" width="186" height="200" as="geometry" />
        </mxCell>
        <mxCell id="BamOJnwxFwO82VgVZ6xR-315" value="" style="rounded=0;whiteSpace=wrap;html=1;strokeWidth=2;fillColor=#2862a9;" vertex="1" parent="BamOJnwxFwO82VgVZ6xR-314">
          <mxGeometry x="36" y="20" width="150" height="180" as="geometry" />
        </mxCell>
        <mxCell id="BamOJnwxFwO82VgVZ6xR-316" value="" style="rounded=0;whiteSpace=wrap;html=1;strokeWidth=2;" vertex="1" parent="BamOJnwxFwO82VgVZ6xR-314">
          <mxGeometry x="45.379999999999995" y="64" width="131.25" height="76" as="geometry" />
        </mxCell>
        <mxCell id="BamOJnwxFwO82VgVZ6xR-317" value="" style="rounded=0;whiteSpace=wrap;html=1;strokeWidth=2;" vertex="1" parent="BamOJnwxFwO82VgVZ6xR-314">
          <mxGeometry x="45.375" y="152.5" width="131.25" height="35.625" as="geometry" />
        </mxCell>
        <mxCell id="BamOJnwxFwO82VgVZ6xR-318" style="edgeStyle=orthogonalEdgeStyle;orthogonalLoop=1;jettySize=auto;html=1;exitX=0.25;exitY=0;exitDx=0;exitDy=0;entryX=0.75;entryY=0;entryDx=0;entryDy=0;strokeWidth=2;endArrow=block;endFill=0;jumpSize=6;jumpStyle=none;rounded=0;shape=flexArrow;endWidth=8;endSize=4;width=3;fillColor=#ffffff;" edge="1" parent="BamOJnwxFwO82VgVZ6xR-314" source="BamOJnwxFwO82VgVZ6xR-319">
          <mxGeometry relative="1" as="geometry">
            <mxPoint x="0.2287499999999909" y="30.004999999999995" as="targetPoint" />
            <Array as="points">
              <mxPoint x="127" />
              <mxPoint />
            </Array>
          </mxGeometry>
        </mxCell>
        <mxCell id="BamOJnwxFwO82VgVZ6xR-319" value="" style="rounded=0;whiteSpace=wrap;html=1;strokeWidth=2;" vertex="1" parent="BamOJnwxFwO82VgVZ6xR-314">
          <mxGeometry x="111.00999999999999" y="30.004999999999995" width="65.625" height="23.75" as="geometry" />
        </mxCell>
        <mxCell id="BamOJnwxFwO82VgVZ6xR-320" value="" style="rounded=0;whiteSpace=wrap;html=1;strokeWidth=2;fillColor=#f8cecc;strokeColor=#b85450;" vertex="1" parent="BamOJnwxFwO82VgVZ6xR-314">
          <mxGeometry x="106" y="125.23000000000002" width="10" height="10" as="geometry" />
        </mxCell>
        <mxCell id="BamOJnwxFwO82VgVZ6xR-321" value="" style="rounded=0;whiteSpace=wrap;html=1;strokeWidth=2;fillColor=#FFFFFF;" vertex="1" parent="BamOJnwxFwO82VgVZ6xR-314">
          <mxGeometry x="120" y="125.23000000000002" width="10" height="10" as="geometry" />
        </mxCell>
        <mxCell id="BamOJnwxFwO82VgVZ6xR-322" value="" style="rounded=0;whiteSpace=wrap;html=1;strokeWidth=2;fillColor=#FFFFFF;" vertex="1" parent="BamOJnwxFwO82VgVZ6xR-314">
          <mxGeometry x="78" y="125.23000000000002" width="10" height="10" as="geometry" />
        </mxCell>
        <mxCell id="BamOJnwxFwO82VgVZ6xR-323" value="" style="rounded=0;whiteSpace=wrap;html=1;strokeWidth=2;fillColor=#FFFFFF;" vertex="1" parent="BamOJnwxFwO82VgVZ6xR-314">
          <mxGeometry x="92" y="125.23000000000002" width="10" height="10" as="geometry" />
        </mxCell>
        <mxCell id="BamOJnwxFwO82VgVZ6xR-324" value="" style="rounded=0;whiteSpace=wrap;html=1;strokeWidth=2;fillColor=#FFFFFF;" vertex="1" parent="BamOJnwxFwO82VgVZ6xR-314">
          <mxGeometry x="50" y="125.23000000000002" width="10" height="10" as="geometry" />
        </mxCell>
        <mxCell id="BamOJnwxFwO82VgVZ6xR-325" value="" style="rounded=0;whiteSpace=wrap;html=1;strokeWidth=2;fillColor=#FFFFFF;" vertex="1" parent="BamOJnwxFwO82VgVZ6xR-314">
          <mxGeometry x="64" y="125.23000000000002" width="10" height="10" as="geometry" />
        </mxCell>
        <mxCell id="BamOJnwxFwO82VgVZ6xR-326" value="" style="rounded=0;whiteSpace=wrap;html=1;strokeWidth=2;fillColor=#FFFFFF;" vertex="1" parent="BamOJnwxFwO82VgVZ6xR-314">
          <mxGeometry x="134" y="125.23000000000002" width="10" height="10" as="geometry" />
        </mxCell>
        <mxCell id="BamOJnwxFwO82VgVZ6xR-327" value="" style="rounded=0;whiteSpace=wrap;html=1;strokeWidth=2;fillColor=#FFFFFF;" vertex="1" parent="BamOJnwxFwO82VgVZ6xR-314">
          <mxGeometry x="162" y="125.23000000000002" width="10" height="10" as="geometry" />
        </mxCell>
        <mxCell id="BamOJnwxFwO82VgVZ6xR-328" value="" style="rounded=0;whiteSpace=wrap;html=1;strokeWidth=2;fillColor=#FFFFFF;" vertex="1" parent="BamOJnwxFwO82VgVZ6xR-314">
          <mxGeometry x="148" y="125.23000000000002" width="10" height="10" as="geometry" />
        </mxCell>
        <mxCell id="BamOJnwxFwO82VgVZ6xR-329" value="" style="rounded=0;whiteSpace=wrap;html=1;strokeWidth=2;fillColor=#FFFFFF;" vertex="1" parent="BamOJnwxFwO82VgVZ6xR-314">
          <mxGeometry x="106" y="111.23000000000002" width="10" height="10" as="geometry" />
        </mxCell>
        <mxCell id="BamOJnwxFwO82VgVZ6xR-330" value="" style="rounded=0;whiteSpace=wrap;html=1;strokeWidth=2;fillColor=#FFFFFF;" vertex="1" parent="BamOJnwxFwO82VgVZ6xR-314">
          <mxGeometry x="120" y="111.23000000000002" width="10" height="10" as="geometry" />
        </mxCell>
        <mxCell id="BamOJnwxFwO82VgVZ6xR-331" value="" style="rounded=0;whiteSpace=wrap;html=1;strokeWidth=2;fillColor=#FFFFFF;" vertex="1" parent="BamOJnwxFwO82VgVZ6xR-314">
          <mxGeometry x="78" y="111.23000000000002" width="10" height="10" as="geometry" />
        </mxCell>
        <mxCell id="BamOJnwxFwO82VgVZ6xR-332" value="" style="rounded=0;whiteSpace=wrap;html=1;strokeWidth=2;" vertex="1" parent="BamOJnwxFwO82VgVZ6xR-314">
          <mxGeometry x="92" y="111.23000000000002" width="10" height="10" as="geometry" />
        </mxCell>
        <mxCell id="BamOJnwxFwO82VgVZ6xR-333" value="" style="rounded=0;whiteSpace=wrap;html=1;strokeWidth=2;fillColor=#FFFFFF;" vertex="1" parent="BamOJnwxFwO82VgVZ6xR-314">
          <mxGeometry x="50" y="111.23000000000002" width="10" height="10" as="geometry" />
        </mxCell>
        <mxCell id="BamOJnwxFwO82VgVZ6xR-334" value="" style="rounded=0;whiteSpace=wrap;html=1;strokeWidth=2;fillColor=#FFFFFF;" vertex="1" parent="BamOJnwxFwO82VgVZ6xR-314">
          <mxGeometry x="64" y="111.23000000000002" width="10" height="10" as="geometry" />
        </mxCell>
        <mxCell id="BamOJnwxFwO82VgVZ6xR-335" value="" style="rounded=0;whiteSpace=wrap;html=1;strokeWidth=2;fillColor=#FFFFFF;" vertex="1" parent="BamOJnwxFwO82VgVZ6xR-314">
          <mxGeometry x="134" y="111.23000000000002" width="10" height="10" as="geometry" />
        </mxCell>
        <mxCell id="BamOJnwxFwO82VgVZ6xR-336" value="" style="rounded=0;whiteSpace=wrap;html=1;strokeWidth=2;fillColor=#FFFFFF;" vertex="1" parent="BamOJnwxFwO82VgVZ6xR-314">
          <mxGeometry x="162" y="111.23000000000002" width="10" height="10" as="geometry" />
        </mxCell>
        <mxCell id="BamOJnwxFwO82VgVZ6xR-337" value="" style="rounded=0;whiteSpace=wrap;html=1;strokeWidth=2;fillColor=#FFFFFF;" vertex="1" parent="BamOJnwxFwO82VgVZ6xR-314">
          <mxGeometry x="148" y="111.23000000000002" width="10" height="10" as="geometry" />
        </mxCell>
        <mxCell id="BamOJnwxFwO82VgVZ6xR-338" value="" style="rounded=0;whiteSpace=wrap;html=1;strokeWidth=2;fillColor=#FFFFFF;" vertex="1" parent="BamOJnwxFwO82VgVZ6xR-314">
          <mxGeometry x="106" y="96.88999999999999" width="10" height="10" as="geometry" />
        </mxCell>
        <mxCell id="BamOJnwxFwO82VgVZ6xR-339" value="" style="rounded=0;whiteSpace=wrap;html=1;strokeWidth=2;fillColor=#FFFFFF;" vertex="1" parent="BamOJnwxFwO82VgVZ6xR-314">
          <mxGeometry x="120" y="96.88999999999999" width="10" height="10" as="geometry" />
        </mxCell>
        <mxCell id="BamOJnwxFwO82VgVZ6xR-340" value="" style="rounded=0;whiteSpace=wrap;html=1;strokeWidth=2;fillColor=#f8cecc;strokeColor=#b85450;" vertex="1" parent="BamOJnwxFwO82VgVZ6xR-314">
          <mxGeometry x="78" y="96.88999999999999" width="10" height="10" as="geometry" />
        </mxCell>
        <mxCell id="BamOJnwxFwO82VgVZ6xR-341" value="" style="rounded=0;whiteSpace=wrap;html=1;strokeWidth=2;fillColor=#FFFFFF;" vertex="1" parent="BamOJnwxFwO82VgVZ6xR-314">
          <mxGeometry x="92" y="96.88999999999999" width="10" height="10" as="geometry" />
        </mxCell>
        <mxCell id="BamOJnwxFwO82VgVZ6xR-342" value="" style="rounded=0;whiteSpace=wrap;html=1;strokeWidth=2;fillColor=#FFFFFF;" vertex="1" parent="BamOJnwxFwO82VgVZ6xR-314">
          <mxGeometry x="50" y="96.88999999999999" width="10" height="10" as="geometry" />
        </mxCell>
        <mxCell id="BamOJnwxFwO82VgVZ6xR-343" value="" style="rounded=0;whiteSpace=wrap;html=1;strokeWidth=2;fillColor=#FFFFFF;" vertex="1" parent="BamOJnwxFwO82VgVZ6xR-314">
          <mxGeometry x="64" y="96.88999999999999" width="10" height="10" as="geometry" />
        </mxCell>
        <mxCell id="BamOJnwxFwO82VgVZ6xR-344" value="" style="rounded=0;whiteSpace=wrap;html=1;strokeWidth=2;fillColor=#FFFFFF;" vertex="1" parent="BamOJnwxFwO82VgVZ6xR-314">
          <mxGeometry x="134" y="96.88999999999999" width="10" height="10" as="geometry" />
        </mxCell>
        <mxCell id="BamOJnwxFwO82VgVZ6xR-345" value="" style="rounded=0;whiteSpace=wrap;html=1;strokeWidth=2;fillColor=#f8cecc;strokeColor=#b85450;" vertex="1" parent="BamOJnwxFwO82VgVZ6xR-314">
          <mxGeometry x="162" y="96.88999999999999" width="10" height="10" as="geometry" />
        </mxCell>
        <mxCell id="BamOJnwxFwO82VgVZ6xR-346" value="" style="rounded=0;whiteSpace=wrap;html=1;strokeWidth=2;fillColor=#FFFFFF;" vertex="1" parent="BamOJnwxFwO82VgVZ6xR-314">
          <mxGeometry x="148" y="96.88999999999999" width="10" height="10" as="geometry" />
        </mxCell>
        <mxCell id="BamOJnwxFwO82VgVZ6xR-347" value="" style="rounded=0;whiteSpace=wrap;html=1;strokeWidth=2;fillColor=#FFFFFF;" vertex="1" parent="BamOJnwxFwO82VgVZ6xR-314">
          <mxGeometry x="106" y="82.88999999999999" width="10" height="10" as="geometry" />
        </mxCell>
        <mxCell id="BamOJnwxFwO82VgVZ6xR-348" value="" style="rounded=0;whiteSpace=wrap;html=1;strokeWidth=2;fillColor=#FFFFFF;" vertex="1" parent="BamOJnwxFwO82VgVZ6xR-314">
          <mxGeometry x="120" y="82.88999999999999" width="10" height="10" as="geometry" />
        </mxCell>
        <mxCell id="BamOJnwxFwO82VgVZ6xR-349" value="" style="rounded=0;whiteSpace=wrap;html=1;strokeWidth=2;" vertex="1" parent="BamOJnwxFwO82VgVZ6xR-314">
          <mxGeometry x="78" y="82.88999999999999" width="10" height="10" as="geometry" />
        </mxCell>
        <mxCell id="BamOJnwxFwO82VgVZ6xR-350" value="" style="rounded=0;whiteSpace=wrap;html=1;strokeWidth=2;fillColor=#FFFFFF;" vertex="1" parent="BamOJnwxFwO82VgVZ6xR-314">
          <mxGeometry x="92" y="82.88999999999999" width="10" height="10" as="geometry" />
        </mxCell>
        <mxCell id="BamOJnwxFwO82VgVZ6xR-351" value="" style="rounded=0;whiteSpace=wrap;html=1;strokeWidth=2;fillColor=#FFFFFF;" vertex="1" parent="BamOJnwxFwO82VgVZ6xR-314">
          <mxGeometry x="50" y="82.88999999999999" width="10" height="10" as="geometry" />
        </mxCell>
        <mxCell id="BamOJnwxFwO82VgVZ6xR-352" value="" style="rounded=0;whiteSpace=wrap;html=1;strokeWidth=2;fillColor=#FFFFFF;" vertex="1" parent="BamOJnwxFwO82VgVZ6xR-314">
          <mxGeometry x="64" y="82.88999999999999" width="10" height="10" as="geometry" />
        </mxCell>
        <mxCell id="BamOJnwxFwO82VgVZ6xR-353" value="" style="rounded=0;whiteSpace=wrap;html=1;strokeWidth=2;fillColor=#FFFFFF;" vertex="1" parent="BamOJnwxFwO82VgVZ6xR-314">
          <mxGeometry x="134" y="82.88999999999999" width="10" height="10" as="geometry" />
        </mxCell>
        <mxCell id="BamOJnwxFwO82VgVZ6xR-354" value="" style="rounded=0;whiteSpace=wrap;html=1;strokeWidth=2;fillColor=#FFFFFF;" vertex="1" parent="BamOJnwxFwO82VgVZ6xR-314">
          <mxGeometry x="162" y="82.88999999999999" width="10" height="10" as="geometry" />
        </mxCell>
        <mxCell id="BamOJnwxFwO82VgVZ6xR-355" value="" style="rounded=0;whiteSpace=wrap;html=1;strokeWidth=2;fillColor=#FFFFFF;" vertex="1" parent="BamOJnwxFwO82VgVZ6xR-314">
          <mxGeometry x="148" y="82.88999999999999" width="10" height="10" as="geometry" />
        </mxCell>
        <mxCell id="BamOJnwxFwO82VgVZ6xR-356" value="" style="rounded=0;whiteSpace=wrap;html=1;strokeWidth=2;fillColor=#FFFFFF;" vertex="1" parent="BamOJnwxFwO82VgVZ6xR-314">
          <mxGeometry x="106" y="68.88999999999999" width="10" height="10" as="geometry" />
        </mxCell>
        <mxCell id="BamOJnwxFwO82VgVZ6xR-357" value="" style="rounded=0;whiteSpace=wrap;html=1;strokeWidth=2;fillColor=#FFFFFF;" vertex="1" parent="BamOJnwxFwO82VgVZ6xR-314">
          <mxGeometry x="120" y="68.88999999999999" width="10" height="10" as="geometry" />
        </mxCell>
        <mxCell id="BamOJnwxFwO82VgVZ6xR-358" value="" style="rounded=0;whiteSpace=wrap;html=1;strokeWidth=2;fillColor=#FFFFFF;" vertex="1" parent="BamOJnwxFwO82VgVZ6xR-314">
          <mxGeometry x="78" y="68.88999999999999" width="10" height="10" as="geometry" />
        </mxCell>
        <mxCell id="BamOJnwxFwO82VgVZ6xR-359" value="" style="rounded=0;whiteSpace=wrap;html=1;strokeWidth=2;fillColor=#FFFFFF;" vertex="1" parent="BamOJnwxFwO82VgVZ6xR-314">
          <mxGeometry x="92" y="68.88999999999999" width="10" height="10" as="geometry" />
        </mxCell>
        <mxCell id="BamOJnwxFwO82VgVZ6xR-360" value="" style="rounded=0;whiteSpace=wrap;html=1;strokeWidth=2;fillColor=#FFFFFF;" vertex="1" parent="BamOJnwxFwO82VgVZ6xR-314">
          <mxGeometry x="50" y="68.88999999999999" width="10" height="10" as="geometry" />
        </mxCell>
        <mxCell id="BamOJnwxFwO82VgVZ6xR-361" value="" style="rounded=0;whiteSpace=wrap;html=1;strokeWidth=2;fillColor=#FFFFFF;" vertex="1" parent="BamOJnwxFwO82VgVZ6xR-314">
          <mxGeometry x="64" y="68.88999999999999" width="10" height="10" as="geometry" />
        </mxCell>
        <mxCell id="BamOJnwxFwO82VgVZ6xR-362" value="" style="rounded=0;whiteSpace=wrap;html=1;strokeWidth=2;fillColor=#f8cecc;strokeColor=#b85450;" vertex="1" parent="BamOJnwxFwO82VgVZ6xR-314">
          <mxGeometry x="134" y="68.88999999999999" width="10" height="10" as="geometry" />
        </mxCell>
        <mxCell id="BamOJnwxFwO82VgVZ6xR-363" value="" style="rounded=0;whiteSpace=wrap;html=1;strokeWidth=2;fillColor=#FFFFFF;" vertex="1" parent="BamOJnwxFwO82VgVZ6xR-314">
          <mxGeometry x="162" y="68.88999999999999" width="10" height="10" as="geometry" />
        </mxCell>
        <mxCell id="BamOJnwxFwO82VgVZ6xR-364" value="" style="rounded=0;whiteSpace=wrap;html=1;strokeWidth=2;fillColor=#FFFFFF;" vertex="1" parent="BamOJnwxFwO82VgVZ6xR-314">
          <mxGeometry x="148" y="68.88999999999999" width="10" height="10" as="geometry" />
        </mxCell>
        <mxCell id="BamOJnwxFwO82VgVZ6xR-368" value="&amp;nbsp; &amp;nbsp;l&amp;nbsp; &amp;nbsp; &amp;nbsp; &amp;nbsp;I&amp;nbsp; &amp;nbsp; &amp;nbsp; I&amp;nbsp; &amp;nbsp; &amp;nbsp;I&amp;nbsp; &amp;nbsp; &amp;nbsp;" style="rounded=0;whiteSpace=wrap;html=1;strokeWidth=2;fillColor=#FFFFFF;spacingBottom=1;fontSize=11;fontStyle=1;fontColor=#990000;" vertex="1" parent="BamOJnwxFwO82VgVZ6xR-314">
          <mxGeometry x="50.690000000000055" y="173" width="120.62" height="10" as="geometry" />
        </mxCell>
        <mxCell id="BamOJnwxFwO82VgVZ6xR-365" value="l&amp;nbsp; &amp;nbsp; I&amp;nbsp; &amp;nbsp;I&amp;nbsp; &amp;nbsp; &amp;nbsp; &amp;nbsp; I I" style="rounded=0;whiteSpace=wrap;html=1;strokeWidth=2;fillColor=#FFFFFF;spacingBottom=1;fontSize=11;fontStyle=1;fontColor=#990000;" vertex="1" parent="BamOJnwxFwO82VgVZ6xR-1">
          <mxGeometry x="54.690000000000005" y="303" width="120.62" height="10" as="geometry" />
        </mxCell>
        <mxCell id="BamOJnwxFwO82VgVZ6xR-366" value="l&amp;nbsp; &amp;nbsp; &amp;nbsp; &amp;nbsp; I&amp;nbsp; &amp;nbsp; &amp;nbsp; I&amp;nbsp; &amp;nbsp; &amp;nbsp; &amp;nbsp; I I&amp;nbsp; &amp;nbsp; I" style="rounded=0;whiteSpace=wrap;html=1;strokeWidth=2;fillColor=#FFFFFF;spacingBottom=1;fontSize=11;fontStyle=1;fontColor=#990000;" vertex="1" parent="BamOJnwxFwO82VgVZ6xR-1">
          <mxGeometry x="214.7" y="303" width="120.62" height="10" as="geometry" />
        </mxCell>
      </root>
    </mxGraphModel>
  </diagram>
</mxfile>
